<svg width="210" height="96" viewBox="0 0 210 96" fill="none" xmlns="http://www.w3.org/2000/svg">
<g clip-path="url(#clip0_2001_1190)">
<rect width="209.944" height="94.4747" transform="translate(-0.47168)" fill="#000F50"/>
<path d="M104.678 44.8479C103.047 43.8788 102.803 43.0308 103.618 40.4129L105.575 33.8041H113.266L115.297 40.534C116.031 43.0712 115.787 44.0403 114.36 44.8479V45.2921H124.531V44.8479C123.43 44.2018 122.296 42.8357 121.48 40.2917L113.3 15.0613H106.343V15.5055C107.769 15.8285 108.292 17.6388 107.606 19.8193L101.138 40.2917C100.282 42.9904 99.5075 44.0403 98.169 44.8479V45.2921H104.678V44.8479ZM109.441 20.8692L112.614 31.59H106.227L109.441 20.8692Z" fill="white"/>
<path d="M184.11 15.068V15.5122C185.17 16.1179 185.863 16.8447 185.863 19.6242V41.5031L176.181 20.0616C175.325 18.2109 174.999 16.838 176.67 15.5055V15.0613H165.847V15.5055C166.744 15.9496 167.355 16.3938 167.804 16.8784V40.7427C167.804 43.5221 167.111 44.2489 166.051 44.8546V45.2988H171.948V44.8546C170.889 44.2489 170.196 43.5221 170.196 40.7427V21.5153L181.182 45.2921H188.262V19.6174C188.262 16.838 188.955 16.1112 190.014 15.5055V15.0613H184.117L184.11 15.068Z" fill="white"/>
<path d="M161.526 44.8479C160.181 44.0403 159.732 43.1116 159.732 41.5435V18.8166C159.732 17.2822 160.221 16.4005 161.567 15.5122V15.068H151.966V15.5122C153.271 16.3602 153.76 17.2889 153.76 18.8166V41.5435C153.76 43.1587 153.23 44.1211 151.926 44.8479V45.2921H161.526V44.8479Z" fill="white"/>
<path d="M136.496 44.8479C134.383 44.6056 133.527 43.6769 133.527 41.5839V29.046H135.117C138.126 29.046 139.675 31.0179 140.124 34.8876H140.368L143.378 23.7227H143.134C141.143 26.6636 139.146 26.9867 136.543 26.9867H133.533V17.2754H139.798C144.724 17.2754 146.388 18.8502 148.875 27.7943H149.12L147.897 14.6171C146.877 15.0613 144.52 15.0613 143.378 15.0613H125.679V15.5054C126.658 16.1111 127.432 16.3534 127.432 18.8098V41.5839C127.432 43.9999 126.658 44.2422 125.679 44.8479V45.2921H136.503V44.8479H136.496Z" fill="white"/>
<path d="M82.8276 44.8883C80.7146 44.6056 79.8585 43.6769 79.8585 41.6243V29.4498L81.0815 29.4095H82.7869C88.4465 29.4095 88.0389 35.9779 88.0389 39.8072C88.0389 43.6365 87.9166 44.1211 86.4898 44.8479V45.2921H97.0277V44.8479C95.1932 44.4441 94.1401 43.9999 94.1401 40.7763C94.1401 37.9565 93.7325 30.6209 87.9573 28.5211C92.0271 27.3501 94.9962 24.9341 94.9962 21.024C94.9962 17.1139 92.1902 15.1017 86.4082 15.1017H72.0043V15.5458C72.9827 16.1515 73.7573 16.3938 73.7573 18.8502V41.6243C73.7573 44.0403 72.9827 44.2826 72.0043 44.8883V45.3325H82.8276V44.8883ZM79.8585 17.2822H84.5806C87.4681 17.2822 88.7319 18.9377 88.7319 21.3941C88.7319 26.5156 85.4774 27.1953 81.0815 27.1953H79.8585V17.2822Z" fill="white"/>
<path d="M67.6289 45.7362L68.8518 32.5591H68.6072C66.1273 41.5098 64.4559 43.0779 59.5301 43.0779H52.8988V28.6894H54.4479C57.4578 28.6894 59.0069 30.6612 59.4553 34.5309H59.6999L62.7098 23.366H62.4652C60.4745 26.307 58.4769 26.63 55.8747 26.63H52.9056V17.2821H59.1292C64.0551 17.2821 65.7197 18.8569 68.2064 27.801H68.451L67.228 14.6238C66.2088 15.068 63.8512 15.068 62.7098 15.068H45.0514V15.5122C46.0298 16.1179 46.8044 16.3601 46.8044 18.7762V41.5435C46.8044 43.9999 46.0298 44.2422 45.0514 44.8479V45.2921H63.1174C64.2589 45.2921 66.6165 45.2921 67.6356 45.7362H67.6289Z" fill="white"/>
<path d="M25.0964 20.8288C25.0964 18.7762 26.89 17.2014 28.9623 17.2014C33.8882 17.2014 37.1019 21.2326 40.5602 27.8414H40.8048L37.9987 15.068H37.7541C37.5503 16.3198 36.6127 16.8043 35.9197 16.8043C34.2075 16.8447 31.7276 14.5498 27.6578 14.5498C23.588 14.5498 18.9883 17.1677 18.9883 21.845C18.9883 31.8793 36.5243 31.1525 36.5243 38.3266C36.5243 41.0253 33.8406 43.0443 31.0278 43.0443C26.6319 43.0443 22.5213 40.0629 19.4707 32.5658H19.2261L21.9914 45.2988H22.236C22.7251 44.4104 23.8666 43.8855 24.8789 43.8855C26.992 43.8855 28.2149 45.817 32.3662 45.817C36.966 45.817 42.1296 42.1896 42.1296 36.9873C42.1296 26.7511 25.0828 27.0338 25.0828 20.8221L25.0964 20.8288Z" fill="white"/>
<path d="M79.7834 50.3328V49.8886H72.6222V50.3328C75.1837 50.8981 75.1021 52.3854 74.4975 54.687L69.0077 74.8835L63.3888 54.687C62.8181 52.594 62.6958 51.0192 65.1825 50.3328V49.8886H55.5821V50.3328C57.6952 50.9789 58.0213 52.1499 58.7959 54.8082L59.0337 55.609L53.7749 74.9576L48.1356 54.687C47.5649 52.594 47.4426 51.0192 49.9293 50.3328V49.8886H40.3697V50.3328C42.442 50.9789 42.7681 52.1499 43.5834 54.8082L51.03 79.9983H54.9775C54.9775 78.1812 56.0781 73.3491 57.5797 67.7835L60.0052 58.8596L66.29 79.9983H70.1967C70.1967 78.1812 71.2973 73.3491 72.7989 67.7835L76.5833 53.9602C77.1948 51.7057 78.0916 50.8173 79.797 50.3328H79.7834Z" fill="white"/>
<path d="M90.4096 77.3736C85.9729 77.3736 81.5363 73.7462 81.5363 66.8143C81.5363 66.5788 81.5363 66.3365 81.5499 66.0875H97.2447C97.2447 60.4882 93.6233 55.8917 87.5628 55.8917C81.5023 55.8917 77.1472 60.9324 77.1472 67.8238C77.1472 75.1594 81.9915 80.5165 88.2558 80.5165C92.8963 80.5165 96.8438 77.3332 97.8969 72.1714H97.5708C95.9402 75.8392 93.5825 77.3332 90.4096 77.3736ZM85.443 57.8636C89.2274 56.5714 92.7265 59.7547 92.7265 64.3108H81.6857C82.039 61.4506 83.0854 58.6711 85.443 57.8636Z" fill="white"/>
<path d="M138.316 51.1336L136.563 51.6586C136.563 55.5283 135.218 56.4166 130.87 56.4166L129.851 58.55C131.726 58.3481 132.861 58.2673 134.247 58.1866V74.0692C134.247 78.3427 136.482 80.5164 139.58 80.5164C142.427 80.5164 144.302 78.7801 144.384 75.718H144.017C143.731 77.3332 142.549 78.3763 141.048 78.3763C139.295 78.3763 138.323 76.8419 138.323 74.224V58.301L144.71 58.5433L145.729 56.4099L138.323 56.6118V51.1336H138.316Z" fill="white"/>
<path d="M166.533 76.4449V63.3888C166.533 58.9134 163.441 55.8917 159.453 55.8917C155.968 55.8917 153.406 57.8703 151.966 61.6256V48.233H151.721C150.295 49.3233 148.018 49.8886 146.184 49.8886V50.3328C147.489 50.8981 147.896 51.3826 147.896 53.4353V76.4516C147.896 78.8676 147.162 79.0695 145.824 79.5945V79.9983H154.045V79.5541C152.659 79.0695 151.973 78.8272 151.973 76.4516V70.4485C151.973 62.6283 154.33 58.5163 157.829 58.5163C160.88 58.5163 162.511 60.9728 162.511 64.5194V76.4516C162.511 78.8676 161.736 79.0695 160.357 79.5541V79.9983H168.66V79.5137C167.273 79.0291 166.546 78.8272 166.546 76.4516L166.533 76.4449Z" fill="white"/>
<path d="M128.471 76.4449V48.233H128.227C126.8 49.3233 124.524 49.8886 122.689 49.8886V50.3328C123.994 50.8981 124.401 51.3826 124.401 53.4353V76.4516C124.401 78.8676 123.668 79.0695 122.329 79.5945V79.9983H130.55V79.5541C129.164 79.0695 128.478 78.8272 128.478 76.4516L128.471 76.4449Z" fill="white"/>
<path d="M118.267 75.1594V64.1156C118.267 58.873 115.175 55.8917 109.237 55.8917C103.944 55.8917 100.241 58.4289 100.241 61.7333C100.241 64.5935 103.047 66.8547 106.669 66.8547C106.682 66.8547 106.696 66.8547 106.709 66.8547C103.095 68.4228 99.0183 69.9438 99.0183 74.3115C99.0183 77.8985 102.232 80.5165 106.995 80.5165C110.188 80.5165 112.702 78.8272 114.258 75.7517L114.523 80.5165C115.705 80.153 117.125 79.9915 119.163 79.9915H120.386V79.5473C118.756 78.9013 118.273 77.6091 118.273 75.1527L118.267 75.1594ZM103.903 61.7804C103.903 59.4451 105.86 57.5472 108.87 57.5472C109.094 57.5472 109.305 57.5607 109.515 57.5809C109.549 57.5809 109.583 57.5876 109.617 57.5944C109.74 57.6078 109.862 57.628 109.984 57.6482C111.853 58.0049 113.15 59.3172 113.15 61.1343C113.15 63.1331 111.615 64.4118 109.665 65.4616C109.176 65.6433 108.673 65.7308 108.143 65.7308C105.989 65.7308 103.91 64.1156 103.91 61.7804H103.903ZM114.197 69.7217C114.197 74.2374 111.635 78.1879 108.218 78.1879C105.575 78.1879 103.292 76.216 103.292 73.3087C103.292 69.6409 106.424 68.8737 110.005 67.1441C111.792 66.2827 113.341 65.2059 114.17 63.6042C114.19 63.8936 114.197 64.1829 114.197 64.4858V69.7284V69.7217Z" fill="white"/>
</g>
<defs>
<clipPath id="clip0_2001_1190">
<rect width="208.812" height="95.1548" fill="white" transform="translate(0.5)"/>
</clipPath>
</defs>
</svg>
