<svg width="210" height="96" viewBox="0 0 210 96" fill="none" xmlns="http://www.w3.org/2000/svg">
<path d="M105.086 44.8258C103.448 43.843 103.202 42.9831 104.021 40.3281L105.987 33.6259H113.713L115.754 40.451C116.491 43.024 116.245 44.0068 114.812 44.8258V45.2763H125.029V44.8258C123.923 44.1706 122.783 42.7852 121.964 40.2053L113.747 14.6181H106.758V15.0686C108.191 15.3962 108.717 17.2321 108.028 19.4434L101.53 40.2053C100.67 42.9421 99.8921 44.0068 98.5476 44.8258V45.2763H105.086V44.8258ZM109.87 20.5081L113.058 31.3805H106.642L109.87 20.5081Z" fill="white"/>
<path d="M184.878 14.6249V15.0754C185.943 15.6897 186.639 16.4268 186.639 19.2455V41.4338L176.914 19.6891C176.054 17.8122 175.726 16.4199 177.405 15.0686V14.6181H166.533V15.0686C167.433 15.519 168.048 15.9695 168.498 16.4609V40.6626C168.498 43.4813 167.802 44.2184 166.737 44.8327V45.2831H172.661V44.8327C171.597 44.2184 170.901 43.4813 170.901 40.6626V21.1634L181.937 45.2763H189.048V19.2387C189.048 16.4199 189.745 15.6828 190.809 15.0686V14.6181H184.885L184.878 14.6249Z" fill="white"/>
<path d="M162.192 44.826C160.84 44.007 160.39 43.0652 160.39 41.4749V18.4267C160.39 16.8706 160.881 15.9765 162.233 15.0756V14.6251H152.589V15.0756C153.899 15.9356 154.391 16.8774 154.391 18.4267V41.4749C154.391 43.113 153.858 44.0889 152.548 44.826V45.2765H162.192V44.826Z" fill="white"/>
<path d="M137.048 44.8259C134.925 44.5802 134.065 43.6383 134.065 41.5157V28.8006H135.662C138.686 28.8006 140.242 30.8004 140.693 34.7248H140.938L143.962 23.402H143.716C141.716 26.3845 139.71 26.7121 137.096 26.7121H134.072V16.8636H140.365C145.313 16.8636 146.985 18.4606 149.483 27.5312H149.729L148.5 14.1677C147.477 14.6181 145.108 14.6181 143.962 14.6181H126.182V15.0686C127.165 15.6828 127.943 15.9285 127.943 18.4197V41.5157C127.943 43.9659 127.165 44.2116 126.182 44.8259V45.2763H137.055V44.8259H137.048Z" fill="white"/>
<path d="M83.1435 44.8669C81.0209 44.5803 80.161 43.6384 80.161 41.5568V29.2102L81.3895 29.1693H83.1026C88.7879 29.1693 88.3783 35.8305 88.3783 39.714C88.3783 43.5975 88.2555 44.0889 86.8222 44.826V45.2764H97.4079V44.826C95.5651 44.4165 94.5073 43.966 94.5073 40.6968C94.5073 37.8371 94.0978 30.3978 88.2965 28.2684C92.3847 27.0808 95.3672 24.6306 95.3672 20.6653C95.3672 16.6999 92.5485 14.6592 86.7403 14.6592H72.2712V15.1097C73.254 15.7239 74.0321 15.9696 74.0321 18.4608V41.5568C74.0321 44.007 73.254 44.2527 72.2712 44.8669V45.3174H83.1435V44.8669ZM80.161 16.8705H84.9044C87.8051 16.8705 89.0745 18.5495 89.0745 21.0406C89.0745 26.2345 85.8053 26.9238 81.3895 26.9238H80.161V16.8705Z" fill="white"/>
<path d="M67.8694 45.727L69.098 32.3635H68.8523C66.3611 41.4408 64.6821 43.0311 59.734 43.0311H53.0727V28.4391H54.6288C57.6523 28.4391 59.2084 30.4388 59.6589 34.3632H59.9046L62.9281 23.0405H62.6824C60.6827 26.023 58.6761 26.3506 56.0621 26.3506H53.0795V16.8706H59.3313C64.2795 16.8706 65.9516 18.4677 68.4496 27.5382H68.6953L67.4668 14.1747C66.443 14.6252 64.0747 14.6252 62.9281 14.6252H45.1898V15.0756C46.1726 15.6899 46.9506 15.9356 46.9506 18.3858V41.475C46.9506 43.9661 46.1726 44.2118 45.1898 44.8261V45.2765H63.3376C64.4842 45.2765 66.8525 45.2765 67.8763 45.727H67.8694Z" fill="white"/>
<path d="M36.6311 38.2057C36.6311 40.9426 33.9352 42.9901 31.1096 42.9901C26.6938 42.9901 22.5646 39.9666 19.5002 32.3635H19.2545L22.0323 45.2765H22.278C22.7694 44.3756 23.916 43.8432 24.9329 43.8432C27.0555 43.8432 28.284 45.802 32.4542 45.802C37.0747 45.802 42.2618 42.1233 42.2618 36.8475C42.2618 26.4666 25.1377 26.7533 25.1377 20.4537C25.1377 18.3721 26.9395 16.775 29.0211 16.775C33.9693 16.775 37.1976 20.8632 40.6715 27.5654H40.9172L38.0985 14.6115H37.8528C37.648 15.8809 36.7062 16.3723 36.01 16.3723C34.2901 16.4133 31.7989 14.0859 27.7107 14.0859C23.6225 14.0859 19.002 16.7409 19.002 21.4843C19.002 31.6605 36.6174 30.9234 36.6174 38.1989L36.6311 38.2057Z" fill="white"/>
<path d="M65.4053 50.3883V49.9379H55.7615V50.3883C57.8841 51.0435 58.2117 52.2311 58.9898 54.927L59.2287 55.7392L53.9461 75.3612L48.2813 54.8041C47.708 52.6816 47.5851 51.0845 50.0831 50.3883V49.9379H40.4802V50.3883C42.5619 51.0435 42.8895 52.2311 43.7085 54.927L51.1887 80.4732H55.1541C55.1541 78.6304 56.2598 73.73 57.7681 68.0857L60.2047 59.0357L66.5178 80.4732H70.4422C70.4422 78.6304 71.5479 73.73 73.0562 68.0857L76.8578 54.067C77.4721 51.7806 78.373 50.8797 80.0861 50.3883V49.9379H72.8924V50.3883C75.4655 50.9616 75.3836 52.47 74.7762 54.8041L69.2615 75.2862L63.6172 54.8041C63.0439 52.6816 62.921 51.0845 65.419 50.3883H65.4053Z" fill="white"/>
<path d="M97.6197 66.3659C97.6197 60.6875 93.982 56.026 87.894 56.026C81.8061 56.026 77.4312 61.138 77.4312 68.1268C77.4312 75.5661 82.2975 80.9989 88.5902 80.9989C93.2517 80.9989 97.2171 77.7706 98.2749 72.5358H97.9473C96.3093 76.2555 93.941 77.7706 90.7537 77.8116C86.297 77.8116 81.8402 74.1329 81.8402 67.1031C81.8402 66.8642 81.8402 66.6185 81.8538 66.3659H97.6197ZM85.7646 58.0257C89.5662 56.7153 93.0811 59.9436 93.0811 64.5641H81.9903C82.3452 61.6635 83.3963 58.8447 85.7646 58.0257Z" fill="white"/>
<path d="M145.299 58.7218L146.323 56.5583L138.884 56.763V51.2074L137.123 51.7398C137.123 55.6642 135.772 56.5651 131.404 56.5651L130.38 58.7287C132.264 58.5239 133.403 58.442 134.796 58.3601V74.4673C134.796 78.8012 137.041 81.0057 140.153 81.0057C143.013 81.0057 144.897 79.2448 144.979 76.1394H144.61C144.323 77.7774 143.136 78.8353 141.628 78.8353C139.867 78.8353 138.891 77.2792 138.891 74.6242V58.4761L145.306 58.7218H145.299Z" fill="white"/>
<path d="M146.781 50.3884C148.091 50.9617 148.5 51.4531 148.5 53.5347V76.8764C148.5 79.3266 147.763 79.5314 146.419 80.0637V80.4732H154.677V80.0228C153.285 79.5314 152.596 79.2857 152.596 76.8764V70.7885C152.596 62.8578 154.964 58.6876 158.479 58.6876C161.543 58.6876 163.181 61.1788 163.181 64.7756V76.8764C163.181 79.3266 162.403 79.5314 161.018 80.0228V80.4732H169.358V79.9818C167.966 79.4904 167.235 79.2857 167.235 76.8764V63.6358C167.235 59.0971 164.13 56.0327 160.124 56.0327C156.622 56.0327 154.049 58.0393 152.602 61.8476V48.2658H152.357C150.923 49.3714 148.637 49.9447 146.794 49.9447V50.3952L146.781 50.3884Z" fill="white"/>
<path d="M122.811 80.0637V80.4732H131.069V80.0228C129.677 79.5314 128.988 79.2857 128.988 76.8764V48.2658H128.742C127.309 49.3714 125.022 49.9447 123.18 49.9447V50.3952C124.49 50.9685 124.899 51.4599 124.899 53.5415V76.8833C124.899 79.3335 124.162 79.5382 122.818 80.0706L122.811 80.0637Z" fill="white"/>
<path d="M99.4012 74.7062C99.4012 78.3439 102.629 80.9989 107.414 80.9989C110.622 80.9989 113.147 79.2858 114.71 76.1668L114.976 80.9989C116.164 80.6303 117.59 80.4665 119.638 80.4665H120.866V80.0161C119.228 79.3609 118.743 78.0505 118.743 75.5593V64.3594C118.743 59.0427 115.638 56.0192 109.673 56.0192C104.356 56.0192 100.637 58.5922 100.637 61.9433C100.637 64.844 103.455 67.1372 107.093 67.1372C107.107 67.1372 107.12 67.1372 107.134 67.1372C103.503 68.7274 99.408 70.2699 99.408 74.6994L99.4012 74.7062ZM104.308 61.9911C104.308 59.6228 106.274 57.6981 109.298 57.6981C109.523 57.6981 109.734 57.7118 109.946 57.7323C109.98 57.7323 110.014 57.7391 110.048 57.7459C110.171 57.7596 110.294 57.78 110.417 57.8005C112.294 58.1622 113.597 59.4931 113.597 61.3359C113.597 63.3629 112.055 64.6597 110.096 65.7244C109.605 65.9087 109.1 65.9974 108.567 65.9974C106.404 65.9974 104.315 64.3594 104.315 61.9911H104.308ZM110.437 67.4307C112.232 66.5571 113.788 65.4651 114.621 63.8407C114.642 64.1342 114.648 64.4276 114.648 64.7348V70.0515C114.648 74.6311 112.075 78.6374 108.642 78.6374C105.987 78.6374 103.694 76.6377 103.694 73.6893C103.694 69.9696 106.841 69.1915 110.437 67.4375V67.4307Z" fill="white"/>
<path d="M190.796 92.6015H19.0224V95.154H190.796V92.6015Z" fill="white"/>
</svg>
