<svg width="118" height="53" viewBox="0 0 118 53" fill="none" xmlns="http://www.w3.org/2000/svg">
<g clip-path="url(#clip0_2001_470)">
<path d="M113.114 18.7045C112.339 21.3271 110.843 22.5806 108.976 22.5806H107.222V18.7045H106.699C105.902 20.9621 104.786 22.2165 102.919 22.9001V23.4472H104.604V30.7671C104.604 32.9791 105.31 33.8922 107.063 33.8922C108.292 33.8922 109.227 33.2531 109.887 31.976L110.024 31.7029L109.637 31.4971C109.204 32.0679 108.795 32.341 108.361 32.341C107.496 32.341 107.222 31.7939 107.222 30.1289V23.4472H111.042V30.7671C111.042 33.0019 111.748 33.8922 113.501 33.8922C114.867 33.8922 115.915 33.0929 116.621 31.4971L116.235 31.2914C115.665 32.0679 115.278 32.341 114.776 32.341C113.934 32.341 113.638 31.7484 113.638 30.1289V23.4472H116.235V22.5806H113.638V18.7045H113.114ZM31.5737 30.9955C31.5737 32.7734 31.8468 33.2304 32.9391 33.2531V33.6637H27.7931V33.2531C28.7262 33.2304 28.9547 32.7734 28.9547 30.9955V25.8414C28.9547 24.3375 28.7262 23.8578 27.998 23.8578C27.8614 23.8578 27.7476 23.8805 27.52 23.9716L27.4063 23.5619L31.0721 22.2392H31.5737V24.6789C32.7807 23.0594 34.0324 22.2392 35.2632 22.2392C37.3123 22.2392 38.2235 23.5619 38.2235 26.5032V31.1558C38.2235 32.7515 38.5421 33.2304 39.6345 33.2531V33.6637H34.2609V33.2531C35.377 33.1166 35.6273 32.706 35.6273 31.0183V26.7307C35.6273 24.7016 35.2395 23.9943 34.1016 23.9943C33.2587 23.9943 32.4385 24.4968 31.5737 25.5227V30.9955ZM65.5211 17.4956H64.9967L61.2617 18.9093L61.3755 19.2971L61.5812 19.2516C61.7405 19.2061 61.9453 19.1834 62.0364 19.1834C62.6745 19.1834 62.9012 19.7077 62.9012 21.1214V31.3606C62.9012 32.7743 62.5598 33.2304 61.5129 33.2532V33.6637H66.933V33.2532C65.8843 33.2304 65.5211 32.7288 65.5211 31.3606V17.4956ZM74.433 22.353V26.0243H73.9551C73.4544 23.8805 72.748 23.105 71.3134 23.105C70.3339 23.105 69.6967 23.5847 69.6967 24.3366C69.6967 25.0894 70.1973 25.591 71.9961 26.6625C74.5468 28.1909 75.2532 29.0347 75.2532 30.5167C75.2532 32.5003 73.5673 34.005 71.2906 34.005C70.698 34.005 70.4249 33.9595 69.1951 33.6637C69.0813 33.6182 68.9903 33.6182 68.8537 33.6182C68.6944 33.6182 68.5579 33.6637 68.3303 33.823H67.8515V29.7411H68.2383C68.7854 32.0897 69.6967 33.1166 71.2442 33.1166C72.2464 33.1166 72.9529 32.4775 72.9529 31.5882C72.9529 30.676 72.9529 30.676 70.4249 29.012C68.1937 27.5291 67.7832 27.0047 67.7832 25.5455C67.7832 23.5847 69.2406 22.2392 71.3817 22.2392C71.8141 22.2392 72.0189 22.262 72.5423 22.4213C73.0894 22.5579 73.2715 22.6034 73.4544 22.6034C73.6593 22.6034 73.7949 22.536 74.0234 22.353H74.433ZM90.9835 17.4956H90.46L86.7477 18.9093L86.8388 19.2971C87.2484 19.2061 87.3622 19.1833 87.4988 19.1833C88.1142 19.1833 88.3872 19.7759 88.3872 21.1214V31.3606C88.3872 32.7288 88.0003 33.2304 86.9753 33.2531V33.6637H92.3953V33.2531C91.3466 33.2304 90.9835 32.7515 90.9835 31.3606V17.4956ZM99.1908 27.1413C96.0703 28.5559 95.5241 29.0347 95.5241 30.3337C95.5241 31.4061 96.2296 32.1353 97.2091 32.1353C97.8927 32.1353 98.4161 31.8622 99.1908 31.1321V27.1413ZM99.077 32.0679L98.8039 32.341C97.5513 33.5271 96.6629 34.005 95.6834 34.005C94.1122 34.005 92.9506 32.7734 92.9506 31.1321C92.9506 29.1713 94.2269 28.1909 99.1908 26.3438V25.5455C99.1908 23.6757 98.712 22.9684 97.3911 22.9684C96.3661 22.9684 95.7517 23.5392 95.7517 24.4968C95.7517 24.5651 95.7517 24.7016 95.7743 24.8619V25.2032C95.7743 25.8878 95.2963 26.3438 94.5899 26.3438C93.8844 26.3438 93.3838 25.8195 93.3838 25.0894C93.3838 23.47 95.3191 22.2392 97.9153 22.2392C100.876 22.2392 101.786 23.105 101.786 25.9105V30.8818C101.786 32.7515 102.083 33.2304 103.199 33.2531V33.6637H100.42C99.3272 33.6637 99.1906 33.5271 99.1906 32.4775V31.976L99.077 32.0679ZM79.4361 25.2032C80.0515 24.5879 80.6659 24.2911 81.3496 24.2911C82.9891 24.2911 84.1279 26.0698 84.1279 28.6469C84.1279 31.2459 83.0573 33.0701 81.5316 33.0701C80.848 33.0701 80.3018 32.8198 79.4361 32.1362V25.2032ZM79.4361 17.4956H78.9582L75.2232 18.8638L75.3597 19.2744C75.5645 19.2061 75.702 19.1833 75.8613 19.1833C76.6132 19.1833 76.8626 19.6622 76.8626 21.1214V32.706C78.5941 33.6637 79.6646 34.005 80.9845 34.005C84.2872 34.005 86.7241 31.3151 86.7241 27.6656C86.7241 24.5187 85.0618 22.2392 82.807 22.2392C81.6682 22.2392 80.5521 22.8546 79.8011 23.9033L79.5499 24.2456L79.4361 24.4049V17.4956ZM58.4006 25.9561C58.2859 24.1318 57.5804 23.1732 56.3506 23.1732C55.0752 23.1732 54.2104 24.2001 54.0739 25.9561H58.4006ZM61.1097 29.7876C60.2676 32.7288 58.9013 34.005 56.5791 34.005C53.7553 34.005 51.8645 31.7256 51.8645 28.3502C51.8645 24.7927 53.9828 22.2392 56.9432 22.2392C59.493 22.2392 60.9513 23.8123 61.1097 26.7999H54.0284C54.2559 29.9241 55.6223 31.7939 57.6487 31.7939C58.9932 31.7939 59.9718 31.1093 60.7456 29.6046L61.1097 29.7876ZM47.4832 31.4971C46.6639 32.0679 46.186 32.2727 45.6617 32.2727C43.9994 32.2727 42.8379 30.2664 42.8379 27.3925C42.8379 24.7472 43.7036 23.105 45.0463 23.105C46.6867 23.105 47.4832 24.2911 47.4832 26.7535V31.4971ZM50.1022 17.4956H49.556L45.8665 18.8866L46.003 19.2744C46.3226 19.1833 46.4127 19.1606 46.5729 19.1606C47.2784 19.1606 47.4832 19.5939 47.4832 21.1441V23.1286C46.5956 22.4441 46.003 22.2392 45.0008 22.2392C42.2234 22.2392 40.0368 24.9301 40.0368 28.3957C40.0368 31.7029 41.7683 34.005 44.2498 34.005C45.4341 34.005 45.9129 33.7547 47.4832 32.4093C47.4832 33.5499 47.5979 33.6637 48.713 33.6637H51.5141V33.2531C50.2851 33.2304 50.1022 32.8881 50.1022 30.6533V17.4956ZM23.2907 27.1413C20.3076 28.4412 19.6021 29.0575 19.6021 30.3337C19.6021 31.3824 20.3304 32.1353 21.3099 32.1353C21.9471 32.1353 22.4942 31.8622 23.2907 31.1321V27.1413ZM23.2907 31.976C23.1542 32.0897 23.1314 32.1125 22.8811 32.341C21.5375 33.5945 20.7637 34.005 19.7614 34.005C18.2121 34.005 17.0287 32.7515 17.0287 31.0866C17.0287 29.1713 18.4178 28.1454 23.2907 26.3438V25.5455C23.2907 23.6985 22.7901 22.9684 21.4919 22.9684C20.4669 22.9684 19.8516 23.5392 19.8516 24.4968C19.8516 24.5879 19.8516 24.7016 19.8743 24.8619V25.2032C19.8743 25.865 19.3973 26.3438 18.6909 26.3438C17.9845 26.3438 17.4838 25.8414 17.4838 25.1122C17.4838 23.4472 19.4191 22.2392 22.0153 22.2392C24.9529 22.2392 25.9097 23.1286 25.9097 25.9105V30.8818C25.9097 32.8426 26.0917 33.2304 27.0485 33.2531V33.6637H24.5205C23.4272 33.6637 23.2907 33.5271 23.2907 32.4775L23.2907 31.976ZM12.1385 25.8878V31.0638C12.1385 32.7743 11.8208 33.1393 10.2259 33.1849V33.6637H16.9213V33.1849C15.2818 33.1166 15.0087 32.7743 15.0087 30.7215V20.1865C15.0087 18.5215 15.3501 18.0664 16.6027 17.9972L16.9213 17.9745V17.4956H10.2259V17.9745C11.8435 18.0437 12.1385 18.3623 12.1385 19.9362V24.8837H5.28474V20.05C5.28474 18.4078 5.69438 17.9517 7.19731 17.9745V17.4956H0.501953V17.9745C1.95936 17.9517 2.41543 18.4533 2.41543 20.05V30.7216C2.41543 32.7971 2.14234 33.1394 0.501953 33.1849V33.6637H7.19731V33.1849C5.60335 33.2304 5.28474 32.8654 5.28474 31.0183V25.8878L12.1385 25.8878Z" fill="#EEEEEE"/>
</g>
<defs>
<clipPath id="clip0_2001_470">
<rect width="117.124" height="17.5" fill="white" transform="translate(0 17)"/>
</clipPath>
</defs>
</svg>
