<svg width="61" height="61" viewBox="0 0 61 61" fill="none" xmlns="http://www.w3.org/2000/svg">
<path d="M22.8494 27.578C27.0192 27.578 30.3995 24.1978 30.3995 20.028C30.3995 15.8583 27.0192 12.478 22.8494 12.478C18.6797 12.478 15.2995 15.8583 15.2995 20.028C15.2995 24.1978 18.6797 27.578 22.8494 27.578Z" stroke="white" stroke-width="2" stroke-linecap="round" stroke-linejoin="round"/>
<path d="M7.62369 48.4779V44.1779C7.62369 39.1779 11.6737 35.1279 16.6737 35.1279H30.2237C35.2237 35.1279 39.2737 39.1779 39.2737 44.1779V48.4779" stroke="white" stroke-width="2" stroke-linecap="round" stroke-linejoin="round"/>
<path d="M41.7003 29.7283C44.7931 29.7283 47.3002 27.2211 47.3002 24.1283C47.3002 21.0355 44.7931 18.5283 41.7003 18.5283C38.6075 18.5283 36.1003 21.0355 36.1003 24.1283C36.1003 27.2211 38.6075 29.7283 41.7003 29.7283Z" stroke="white" stroke-width="2" stroke-linecap="round" stroke-linejoin="round"/>
<path d="M43.3006 35.3281H47.1506C50.8506 35.3281 53.8506 38.3281 53.8506 42.0281V45.2281" stroke="white" stroke-width="2" stroke-linecap="round" stroke-linejoin="round"/>
</svg>
