<svg width="69" height="60" viewBox="0 0 69 60" fill="none" xmlns="http://www.w3.org/2000/svg">
<g clip-path="url(#clip0_1_3170)">
<path d="M9.86274 14.3168C9.7942 14.2807 9.66531 14.1652 9.71788 14.1557L9.9608 14.3212L9.86132 14.3214L9.86274 14.3168Z" fill="#F48236"/>
<path d="M9.6137 13.7629C9.75189 13.8151 9.97884 13.9349 10.1635 14.1284C9.91807 13.9877 10.0026 14.0694 9.71276 13.8948C9.66019 13.9042 9.74217 14.0106 9.82779 14.0722C9.75925 14.0361 9.84011 14.1624 9.68282 14.0587C9.54049 13.8729 9.57709 13.8179 9.76078 13.8839C9.72206 13.8314 9.65353 13.7953 9.60915 13.7615L9.6137 13.7629Z" fill="#F48236"/>
<path d="M11.6899 10.4452L11.7012 10.4908C11.7012 10.4908 11.6855 10.4597 11.6899 10.4452Z" fill="#F48236"/>
<path d="M13.0686 8.46243C13.0686 8.46243 13.0248 8.45931 13.0049 8.44308C13.0305 8.44067 13.0547 8.44293 13.0686 8.46243Z" fill="#F48236"/>
<path d="M13.0776 7.94102C13.0776 7.94102 13.0763 7.96172 13.0779 7.97277C13.0654 7.94788 13.0561 7.92921 13.0776 7.94102Z" fill="#F48236"/>
<path d="M11.6904 10.4452L11.6596 10.334C11.7361 10.3929 11.6926 10.4051 11.6904 10.4452Z" fill="#F48236"/>
<path d="M10.4931 13.796C10.4931 13.796 10.4462 13.7868 10.4112 13.7711C10.4263 13.7706 10.4414 13.7701 10.4578 13.7649C10.4701 13.7737 10.4823 13.7825 10.4945 13.7913L10.4931 13.796Z" fill="#F48236"/>
<path d="M10.8448 11.1192L10.8301 11.135C10.8011 11.1161 10.7675 11.0957 10.7294 11.0739L10.8434 11.1238L10.8448 11.1192Z" fill="#F48236"/>
<path d="M10.3013 11.7278C10.3013 11.7278 10.4999 11.8594 10.5855 11.9211C10.4985 11.8641 10.4544 11.8456 10.4302 11.8433C10.3949 11.8123 10.352 11.7738 10.3013 11.7278Z" fill="#F48236"/>
<path d="M9.83112 13.0146L9.79046 13.0128C9.79046 13.0128 9.8155 13.0152 9.83112 13.0146Z" fill="#F48236"/>
<path d="M11.1665 10.632C11.1389 10.6083 11.1159 10.5861 11.1005 10.5712C11.125 10.5888 11.148 10.6111 11.1665 10.632Z" fill="#F48236"/>
<path d="M18.0851 16.6895C18.0851 16.6895 18.1163 16.6884 18.1287 16.6816C18.1054 16.6904 18.0836 16.6943 18.0851 16.6895Z" fill="#F48236"/>
<path d="M19.4117 17.4631L19.4265 17.4472L19.5617 17.4272L19.4117 17.4631Z" fill="#F48236"/>
<path d="M13.3037 7.1499L13.3023 7.15467C13.2676 7.15455 13.2796 7.14778 13.3037 7.1499Z" fill="#F48236"/>
<path d="M18.7296 3.16113C18.5338 3.39674 18.5178 3.80912 18.2929 4.02573C18.3778 3.89378 18.5925 3.23647 18.7296 3.16113Z" fill="#F48236"/>
<path d="M10.4793 13.7578C10.4793 13.7578 10.499 13.7426 10.502 13.7329C10.4961 13.7523 10.4946 13.7572 10.4793 13.7578Z" fill="#F48236"/>
<path d="M18.2979 4.02686L18.2752 4.05174C18.2827 4.04345 18.2903 4.03515 18.2979 4.02686Z" fill="#F48236"/>
<path d="M14.4998 5.8952C14.5306 5.92489 14.5522 5.95182 14.5738 5.97875C14.5539 5.96252 14.5309 5.94025 14.4998 5.8952Z" fill="#F48236"/>
<path d="M13.9658 7.12719L13.9604 7.07994C13.9604 7.07994 13.9686 7.11791 13.9658 7.12719Z" fill="#F48236"/>
<path d="M15.2443 5.52139C15.2497 5.4874 15.2295 5.45582 15.2761 5.44963C15.2824 5.46171 15.2841 5.47241 15.2918 5.47983C15.2613 5.4655 15.2417 5.46462 15.2458 5.51674L15.2443 5.52139Z" fill="#F48236"/>
<path d="M15.9002 4.70774C15.9002 4.70774 15.9052 4.75505 15.9084 4.77638L15.885 4.78962L15.909 4.71043L15.9002 4.70774Z" fill="#F48236"/>
<path d="M17.9654 14.5711C18.0378 14.5779 18.1132 14.5753 18.1885 14.5728C18.0109 14.5849 17.9618 14.6972 17.9654 14.5711Z" fill="#F48236"/>
<path d="M10.3862 13.7074C10.4352 13.7426 10.4656 13.7569 10.4792 13.7611C10.4733 13.7644 10.4628 13.7663 10.4568 13.7695C10.4292 13.7459 10.4002 13.7269 10.3862 13.7074Z" fill="#F48236"/>
<path d="M16.5947 6.96577L16.582 6.92499C16.582 6.92499 16.6007 6.96234 16.5947 6.96577Z" fill="#F48236"/>
<path d="M17.4287 9.59961L17.4001 9.62782C17.4001 9.62782 17.4014 9.60711 17.4287 9.59961Z" fill="#F48236"/>
<path d="M16.628 6.91882C16.5855 6.82959 16.5679 6.77333 16.5536 6.73847C16.563 6.75659 16.5724 6.77471 16.5835 6.80353L16.6266 6.92347L16.628 6.91882Z" fill="#F48236"/>
<path d="M17.6915 15.3732C17.6729 15.2709 18.0017 15.2843 18.1861 15.2335C18.2633 15.0941 17.9414 15.2049 17.7723 15.1891C17.8489 15.1005 18.1378 15 18.1201 14.9438C18.0644 14.9472 18.0477 14.937 17.9803 14.9623C18.2297 14.8448 17.9664 14.7139 18.2772 14.5743C18.2485 14.5706 18.2183 14.5716 18.1928 14.574C18.3585 14.5684 18.5239 14.5475 18.6381 14.5313C18.6372 14.4852 18.8318 14.4172 18.6195 14.429C18.6306 14.4578 18.542 14.4716 18.4806 14.4936L18.5683 14.4338C18.2608 14.4319 18.469 14.5155 18.2465 14.5446C18.3347 14.434 18.5716 14.2923 18.4769 14.2279C18.1759 14.2534 18.3961 14.412 18.122 14.349L18.2506 14.4491C17.7708 14.4254 18.291 14.5123 17.7828 14.5003C17.6806 14.3624 17.9148 14.3115 17.8126 14.1735C17.9742 14.1158 18.0578 14.1514 18.2181 14.0983C18.4889 13.8448 17.454 14.0289 17.8298 13.8226C18.0244 13.7545 18.397 13.6897 18.1843 13.6047L17.8513 13.6866C17.8002 13.5439 18.3232 13.54 18.0826 13.416C17.9553 13.4587 17.9841 13.5438 17.9446 13.5267C17.6705 13.4638 18.1281 13.4298 18.1206 13.3563L17.8196 13.3819C17.8482 13.2226 18.0432 13.0224 18.0774 12.8445C17.9918 12.8643 17.8992 12.9074 17.8037 12.8784C17.9257 12.6407 17.7134 12.4235 17.5153 12.2412L17.7633 12.1283C17.7633 12.1283 17.6454 12.1077 17.5962 12.1386C17.4879 12.07 17.7585 12.1116 17.8539 12.0591C17.8681 12.0126 17.6978 12.0168 17.6263 12.0561C17.8279 11.8833 18.0481 11.5839 17.7535 11.474L17.6819 11.5133C17.5638 11.4113 18.1904 11.3117 17.9402 11.2356L17.8971 11.2632C17.7567 11.0221 17.9601 10.7125 17.5472 10.5666C17.9118 10.479 17.3543 10.335 17.8666 10.2515C17.5931 10.1379 17.5067 10.193 17.3133 10.0121C17.2836 9.96239 17.6243 9.88785 17.6726 9.81091L17.4034 9.84615L17.6767 9.71549L17.351 9.70809L17.4129 9.6353C17.4314 9.65619 17.5402 9.67402 17.6198 9.65749C17.7291 9.54314 17.403 9.43894 17.2677 9.45888L17.4675 9.19395C17.3624 9.21288 17.3286 9.25858 17.2616 9.29927C17.5237 9.13979 16.9739 9.31362 17.2122 9.16725C17.2742 9.17591 17.3699 9.13886 17.4285 9.12612C17.2605 9.09031 17.2399 8.96193 17.3025 8.85377L17.121 8.89527C17.0529 8.727 17.1663 8.51723 17.1413 8.32138C17.2375 8.38113 17.5543 8.31968 17.5818 8.26189L17.2942 8.27625C17.4664 8.21663 17.4097 8.32151 17.6156 8.21618C17.5766 8.14835 17.2839 8.21205 17.199 8.26257L17.289 8.1627C17.2031 8.16715 17.16 8.19473 17.0548 8.21366C17.227 8.15405 16.7511 8.10101 17.0537 8.00471L16.9679 8.00915C16.9429 7.81329 17.0329 7.71343 17.0268 7.55382C17.2717 7.51633 17.2089 7.4616 17.4049 7.38888C17.311 7.2891 17.1051 7.16545 17.1117 7.04536C17.2313 6.99521 17.3189 7.00146 17.4612 6.95822C17.2373 6.99193 17.256 6.94673 17.0975 7.0105C17.1295 6.95409 17.1341 6.95547 17.3024 6.77766C17.3891 6.73784 17.4311 6.73027 17.5055 6.68165C17.5379 6.6406 17.4092 6.68799 17.3095 6.75437L17.2888 6.77351C17.4441 6.62226 17.2773 6.64789 17.1404 6.73858C17.0018 6.81858 16.884 6.96087 17.088 6.68196L17.069 6.7118C17.1408 6.60641 17.2063 6.48894 17.2747 6.36215C17.2357 6.37576 17.1314 6.58829 17.0062 6.73852C17.164 6.48115 17.1469 6.4556 17.1216 6.47336C17.0918 6.48974 17.0552 6.54477 17.1547 6.3155C16.8767 6.82127 16.8886 6.81472 16.9198 6.71224C16.9481 6.61908 17.0033 6.43742 16.8384 6.8656L16.9602 6.54645C17.0744 6.21987 16.8928 6.71931 16.8642 6.79711C16.9529 6.55438 16.9628 6.52177 17.0373 6.32562C17.0976 6.09461 17.0587 6.10822 16.994 6.27176C16.8852 6.56435 16.7828 6.95047 16.7543 7.10972C16.7453 7.18839 17.0531 5.43993 16.882 6.2479L16.7983 6.81778C16.8399 6.48444 16.8062 6.53015 16.7889 6.57069C16.7642 6.61916 16.7529 6.65643 16.716 6.46712C16.7269 6.56203 16.731 6.69559 16.7325 6.69093C16.7434 7.01481 16.7152 6.73147 16.676 6.50075C16.6692 6.5394 16.6984 6.72128 16.7159 6.84363C16.7388 7.01343 16.6385 6.50971 16.6831 6.78788C16.6928 6.82136 16.7042 6.86553 16.7063 6.89159C16.6751 6.7651 16.6998 6.9456 16.623 6.64239C16.6502 6.79821 16.5402 6.57143 16.5918 6.74487C16.4466 6.48701 16.6312 6.9095 16.4208 6.5555C16.6361 6.92624 16.5837 6.86962 16.4367 6.74859C16.5197 6.8349 16.5081 6.85681 16.631 6.97559C16.6219 6.97282 16.558 6.93811 16.406 6.80034C16.443 6.84211 16.4646 6.86904 16.4877 6.89131C16.4943 6.91875 16.4886 6.93738 16.4738 6.95325C16.4457 6.98032 16.3914 6.97909 16.3417 6.97924C16.2363 6.98281 16.155 6.98864 16.3644 7.21512C16.0504 7.26725 15.7973 7.34805 15.5899 7.45803C15.9023 7.70563 15.7691 7.29368 16.088 7.56871C15.8328 7.62346 15.4973 7.50113 15.4413 7.71817C15.4488 7.79168 15.5937 7.80521 15.6546 7.83388C15.3994 7.88862 15.4336 8.16869 15.1533 8.17511C15.1809 8.19876 15.2278 8.20793 15.2611 8.21295C15.2298 8.23398 15.2541 8.31768 15.1161 8.19942L15.175 8.20203C15.011 7.98937 14.6608 7.96435 14.5521 7.88044C14.9887 8.1607 14.5385 8.10526 15.1059 8.44564C15.0667 8.44389 14.9831 8.40831 14.8926 8.32993C14.8966 8.38204 14.9458 8.43262 15.0721 8.49135C14.9161 8.53044 14.7954 8.37163 14.7265 8.46771C14.7939 8.52382 14.8331 8.52557 14.9202 8.58255C14.7501 8.52069 14.5801 8.45884 14.5779 8.58031C14.6237 8.60949 14.667 8.66335 14.6846 8.63817C14.5602 8.75302 14.1527 8.5732 14.1653 8.82633C14.4918 9.02734 14.2205 8.95508 14.4675 9.17262L14.3291 9.18653L14.23 9.05465C14.1787 9.12554 13.9478 9.03501 13.9835 9.16289L14.1273 9.19643L13.9768 9.28298L13.9391 9.12905C13.7514 9.09237 13.6247 8.8554 13.6232 9.00759C13.6624 9.00933 13.5718 9.07848 13.6925 9.23728C13.5833 9.2041 13.4696 9.16954 13.4927 9.27325C13.5622 9.35542 13.7835 9.49391 13.8267 9.54777C13.5872 9.40374 13.639 9.65862 13.3799 9.51373C13.4453 9.54378 13.5756 9.65462 13.6032 9.67828L13.4095 9.56343C13.4411 9.6392 13.4628 9.66613 13.5714 9.75004C13.5241 9.87305 13.2746 9.45121 13.3244 9.68004C13.3426 9.68557 13.3656 9.70784 13.4094 9.71096C13.3917 9.88368 13.121 9.84213 13.123 10.0157C13.3523 10.2584 13.2593 9.97575 13.4475 10.1907C13.2793 10.3024 12.8924 10.251 12.833 10.4466L12.8289 10.3945C12.4512 10.1168 12.9199 10.6511 12.6924 10.582C12.7317 10.5837 12.9123 10.7251 12.8665 10.696C12.8468 10.8426 12.6129 10.8275 12.3818 10.8845L12.4885 10.9423C12.5242 11.0702 12.4094 11.1371 12.3993 11.2358C12.2927 11.1779 12.2771 11.2292 12.1598 11.0918C12.5295 11.7231 11.5762 11.2299 11.8792 11.7698C11.8954 11.7492 11.9986 11.7857 11.9884 11.8029L11.7864 11.8789C11.6404 11.7379 11.7076 11.7786 11.6085 11.6468C11.5018 11.5889 11.393 11.5711 11.3666 11.6089C11.5252 11.6265 11.6164 11.8171 11.6847 11.9193C11.6386 11.8747 11.5792 11.8414 11.5331 11.7968C11.7517 12.1075 11.2056 11.5498 11.3102 11.8105L11.3959 11.8722C11.3206 11.8747 11.1824 11.8226 11.1731 11.8859C11.3407 12.0538 11.2942 11.9125 11.4412 12.0335C11.3805 12.0863 11.0053 11.8654 11.142 12.0698C11.2117 12.0859 11.2426 12.0495 11.3122 12.0656C11.4796 12.2996 11.4171 12.2603 11.4186 12.337L11.4214 12.3277L11.431 12.5087L11.3934 12.4362C10.8581 12.1209 11.1854 12.5155 10.795 12.3612C11.1687 12.5053 10.9754 12.4873 11.1896 12.6491C11.2272 12.7216 11.2591 12.8127 11.3262 12.8534C11.1195 12.7652 11.3932 13.0417 11.0966 12.9058C11.1581 12.9652 11.0646 12.9622 11.2344 13.0901C11.1338 13.1104 11.1283 12.9815 11.0441 12.9152C10.7393 12.8226 11.1404 13.3668 10.719 13.249C10.4962 13.2627 10.2533 13.0972 10.0532 13.1178C10.1295 13.2428 10.3203 13.2855 10.3203 13.2855C10.3713 13.4282 10.3176 13.4577 10.1954 13.4511C10.264 13.4872 10.3027 13.5397 10.363 13.6191C10.3093 13.6486 10.0959 13.4514 10.1484 13.5895C10.2323 13.6404 10.3606 13.7252 10.4533 13.7635C10.3478 13.7671 10.1841 13.7173 10.0786 13.7209C10.1848 13.8295 10.2783 13.8325 10.3696 13.8755C10.269 13.8958 10.1374 13.9525 9.93891 13.8209L9.90697 13.7298C9.90697 13.7298 10.0529 13.8708 10.0998 13.88C10.2835 13.946 10.0988 13.7525 10.0328 13.6917L9.95752 13.6943C9.60069 13.3314 10.1484 13.5895 10.1886 13.4898L9.88173 13.2896L10.1809 13.4009C10.1205 13.3215 9.97455 13.1804 9.89923 13.183C9.80695 13.0125 10.0385 13.2152 9.92351 13.0377C9.90188 13.0108 9.88965 13.002 9.87145 12.9964L10.0014 13.0105C9.93282 12.9744 9.81101 12.8356 9.82445 12.9058C9.74147 12.672 10.1638 12.9174 9.98026 12.7039L9.95751 12.6969C10.1644 12.6377 10.1777 12.8555 10.5007 12.9536L10.0448 12.4589L10.2649 12.6174C10.2649 12.6174 10.2743 12.5541 10.1886 12.4924C10.3723 12.5584 10.2717 12.5787 10.4315 12.6578C10.296 12.4335 10.6704 12.5422 10.3558 12.2532C10.5327 12.3578 10.4239 12.4214 10.593 12.4372C10.2567 12.1213 10.722 12.4052 10.6095 12.2031C10.411 12.0715 10.4589 12.2082 10.345 12.0107C10.6854 12.2312 10.3746 11.8315 10.4755 11.8265C10.7222 12.0287 10.6693 11.7938 10.8242 11.7748C10.7386 11.7131 10.8247 11.4951 10.7975 11.3392L10.7532 11.3054C11.0132 11.4964 11.0363 11.3711 11.1369 11.3508C10.9853 11.2284 10.9167 11.1923 10.8243 11.1693L10.8715 11.1124C10.9645 11.1661 11.019 11.1827 11.079 11.1653L10.8833 11.0244C10.9543 10.9543 11.2289 11.048 11.1858 10.8466C11.3619 10.9866 11.6067 11.3257 11.8085 11.3157C11.7194 11.2327 11.5615 11.0982 11.4981 11.0942C11.5163 11.0997 11.6028 11.126 11.5777 11.0777L11.386 10.9889C11.3524 10.8871 11.5385 11.0759 11.5541 11.0247C11.4192 10.9125 11.4812 10.9211 11.368 10.8358C11.3498 10.8303 11.3996 10.9116 11.3342 10.8815C11.3435 10.8182 11.3036 10.7043 11.2142 10.6059C11.2879 10.6741 11.392 10.7566 11.4369 10.7398C11.5079 10.6697 11.2966 10.5801 11.263 10.4783C11.3696 10.5361 11.3143 10.4074 11.518 10.571C11.5356 10.5459 11.4451 10.4675 11.3973 10.4122C11.5156 10.4482 11.5719 10.2465 11.7481 10.468L11.7561 10.4908C11.7561 10.4908 11.7652 10.4935 11.7697 10.4949C12.0733 10.5261 11.877 10.1255 12.0643 10.0654L11.9969 10.0093C12.1353 9.99538 12.1826 9.87238 12.3722 9.93511C12.3898 9.90993 12.2953 9.77943 12.2037 9.72107C12.3029 9.70541 12.3808 9.75963 12.3411 9.57964C12.1777 9.54523 12.2546 9.47193 12.2053 9.56888C12.2088 9.44275 12.1163 9.33831 12.3648 9.40366C12.1711 9.28881 12.1943 9.16355 12.2759 9.17309L12.3573 9.33015C12.4141 9.30671 12.4283 9.26013 12.4425 9.21354L12.1995 9.04812C12.0533 8.66275 12.8949 9.14751 12.5353 8.64642C12.727 8.73521 12.575 8.82641 12.7943 8.93885C12.824 8.84103 12.561 8.49649 12.5786 8.4713C12.5309 8.26854 12.9815 8.64975 12.9796 8.47616C13.0491 8.55833 13.2548 8.74806 13.3932 8.73416C13.4229 8.63634 13.1282 8.36356 13.0255 8.35782C13.0062 8.3723 13.0233 8.39785 13.0509 8.4215C13.0012 8.42165 12.9409 8.42369 12.8771 8.32289L12.9642 8.37987C12.9109 8.27718 12.9995 8.18197 12.847 8.09493C12.9693 8.10155 12.9995 8.18197 13.007 8.25548C12.9655 8.0648 13.1216 8.10715 13.1214 7.94426C13.1556 7.99535 13.2359 8.09099 13.2461 8.07374C13.2597 7.84891 13.4508 8.13596 13.5596 8.07234C13.4781 7.91528 13.2492 7.8508 13.4314 7.84002C13.3957 7.71215 13.2257 7.65029 13.1407 7.61936C13.3661 7.66244 13.1719 7.36935 13.1841 7.29672L13.0815 7.29097C13.1448 7.29497 13.1565 7.27306 13.1786 7.24926L13.3189 7.40894C13.3149 7.35683 13.3311 7.3363 13.2636 7.28019C13.3899 7.33892 13.5126 7.52378 13.7023 7.58651C13.649 7.48382 13.8779 7.54829 13.6767 7.35994C13.659 7.53265 13.471 7.17021 13.3608 7.23848C13.4 7.24023 13.4176 7.21504 13.4121 7.16759C13.3891 7.14532 13.3632 7.13237 13.3482 7.13288C13.245 6.86744 13.63 7.28469 13.7151 7.16809C13.5823 7.08192 13.5074 6.9523 13.5466 6.95404C13.5129 6.99975 13.7282 7.14152 13.857 7.17558C13.8224 7.02768 13.9877 7.15424 14.0064 7.10905L14.017 7.1886C14.1498 7.27476 14.1609 7.22214 14.2404 7.20562C14.1514 7.12258 14.1378 7.19987 14.1142 7.14689C14.3712 7.26573 13.995 6.83589 14.2008 6.8781C14.1476 6.77541 13.9755 6.68749 13.9498 6.60845C14.1753 6.65153 13.8609 6.37788 14.0647 6.39403C14.205 6.55371 14.1637 6.52591 14.3716 6.59417L14.136 6.64978L14.4499 6.74519C14.4147 6.79555 14.2709 6.76201 14.2763 6.80946C14.4464 6.87132 14.3992 6.84679 14.5193 6.97488C14.3257 6.71251 14.7603 6.96672 14.6537 6.76133L14.2523 6.4307C14.1614 6.17408 14.6121 6.40776 14.6258 6.18294L14.6594 6.28476C14.8335 6.39872 14.75 6.21561 14.8526 6.22135C14.7164 6.11379 14.6879 6.04406 14.6198 5.95724C14.718 6.04304 14.693 5.84719 14.973 6.05439L14.8482 5.84347C14.8719 5.66748 15.3268 6.03472 15.3809 5.87307C15.2074 5.78981 15.1521 5.66106 14.9861 5.65132C15.0051 5.62148 15.038 5.5297 15.1257 5.61739C15.0752 5.50538 15.4153 5.6291 15.3367 5.46272C15.4052 5.49882 15.533 5.63433 15.5678 5.56861C15.549 5.53236 15.5138 5.50129 15.5138 5.50129C15.5678 5.56861 15.6542 5.51344 15.7366 5.71657C15.6208 5.42697 15.7242 5.3159 15.813 5.23606C15.9079 5.15293 15.9911 5.09172 15.9574 4.76093C16.0725 4.70939 16.1963 4.64526 16.2807 4.56404C16.2644 4.50312 16.2604 4.45101 16.2476 4.49293C16.3265 4.13527 16.4262 5.06623 16.4957 4.69045C16.5091 4.22129 16.4071 4.55668 16.4274 4.35929C16.3863 3.95499 16.4354 3.92413 16.4928 3.9314C16.5517 3.93402 16.61 3.98737 16.6506 3.67404L16.6275 3.65177C16.6995 3.25132 16.8121 3.76384 16.9153 3.57133C16.9153 3.57133 16.9138 3.49454 16.92 3.42518C16.979 3.81966 17.0865 3.84214 17.1536 3.8829C17.1762 3.49795 17.1352 3.71448 17.2018 3.26658C17.2396 3.27298 17.1145 3.9626 17.1753 3.99127C17.2304 3.72816 17.3213 3.4454 17.4035 2.94625L17.3163 3.0368C17.4508 2.3653 17.4358 2.9052 17.4959 2.74028L17.5374 2.47302C17.6785 2.36835 17.5347 3.10317 17.6811 2.88307L17.6166 3.12805C17.5167 3.79991 17.7709 2.62032 17.7126 3.10636L17.9285 2.28151C17.9415 2.40247 17.9124 2.84142 17.9349 2.91442C18.0713 2.33507 18.0421 2.15319 18.0566 1.89299C18.1153 1.81417 18.2368 1.70863 18.1494 2.09423C18.1514 2.03884 18.1796 1.86424 18.1209 2.02451C18.0469 2.3989 18.0153 2.63355 18.0186 2.72104C18.0014 2.84302 17.9955 2.92774 18.0024 2.97053C18.2453 2.13862 18.289 2.14175 18.3238 2.22356C18.3555 2.29932 18.3792 2.43375 18.5836 1.94122C18.5093 2.3817 18.5458 2.47421 18.6076 2.54895C18.6707 2.61904 18.7546 2.66998 18.7609 2.91104C18.3175 3.66675 18.7622 3.05391 18.3181 3.92644C18.2981 4.05774 18.3089 4.07121 18.3395 4.01946C18.4386 3.92236 18.5334 3.83924 18.6345 3.7682C18.7745 3.6021 18.7243 3.50545 18.8279 3.32829C18.8866 3.47844 19.028 3.07871 19.1672 3.02943C19.0032 3.27472 18.9443 3.50107 19.0171 3.52319C18.9367 3.57509 18.8609 3.62837 18.7868 3.69235C18.5752 4.3557 19.2036 3.35091 18.9924 4.02961L19.1296 3.72531C19.0597 4.00428 19.2085 4.36498 18.8365 4.91851C18.8962 4.88576 19.0313 4.78436 19.0579 4.6805C19.1079 4.84324 19.0281 5.15483 18.9681 5.4012C18.9067 5.65222 18.8637 5.8427 19.0068 5.91162L19.13 5.81677C19.1017 5.90994 18.9055 6.04874 19.0431 6.07021C19.0953 6.04539 19.168 5.98606 19.1791 6.01489C19.1411 6.07457 18.9779 6.28448 19.0604 6.34008L19.1936 6.21263C19.2961 6.36591 19.2272 6.54343 19.1199 6.68383C19.0657 6.76404 19.0018 6.81077 18.9485 6.8556C18.8951 6.90044 18.8462 6.94666 18.8321 6.99324C19.2154 6.94184 19.36 7.08754 19.4323 7.16039L19.4848 7.15093C19.5587 7.38201 19.2148 7.59804 19.0869 7.83903C19.5196 7.91965 19.3156 8.28001 19.5756 8.47097C19.5028 8.44885 19.2781 8.51793 19.2398 8.56226C19.3219 8.6025 18.9916 8.74124 19.3417 8.68482L19.3323 8.6667C19.6818 8.661 19.6013 8.77899 19.621 8.8613L19.1612 8.93527C19.8571 9.06537 18.9785 9.53617 19.5973 9.57668C19.4871 9.64496 19.4974 9.70915 19.3872 9.77742L19.6368 9.74131C19.7148 9.87697 19.7584 9.94619 19.7168 10.132L19.889 10.0724C19.9181 10.1728 19.1895 10.2974 19.1853 10.3928L19.5588 10.374C19.5743 10.5517 19.9206 10.6875 19.6054 10.9072C19.658 10.8977 19.7631 10.8788 19.7776 10.8476C19.7973 10.9299 20.0621 11.1376 19.5548 11.1717C19.8856 11.1298 19.6096 11.3512 19.4762 11.4633L19.7194 11.4151C19.4188 11.5374 19.3302 11.5512 19.2573 11.6766C19.2908 11.697 19.4562 11.676 19.3908 11.646C19.5279 11.7182 19.1667 11.7458 19.3086 11.8347L19.4612 11.7742C19.4886 11.8639 19.4073 11.8698 19.2309 11.9434C19.1403 12.0125 19.314 12.1111 19.5337 12.0914C19.4002 12.122 19.2283 12.197 19.294 12.2424C19.3798 12.238 19.4276 12.2118 19.4514 12.1987C19.6349 12.3308 19.1928 12.461 19.4475 12.5384C19.5302 12.5279 19.5695 12.5297 19.5968 12.538C19.5793 12.4156 19.5533 12.3212 19.5354 12.3311C19.7579 12.302 19.8095 12.394 20.1146 12.273C19.9553 12.3722 19.6002 12.5594 19.7194 12.6414C19.7421 12.6483 19.7632 12.6445 19.7978 12.6449L19.8217 12.6318C19.8462 12.6494 19.8286 12.6746 19.7914 12.6989C19.8326 12.7267 19.863 12.741 19.8696 12.7685C20.0577 12.7544 19.9831 12.8691 19.9991 12.9147C19.7524 12.9415 19.7988 13.0014 19.5902 12.9685C19.6084 12.974 19.6186 12.9568 19.6239 12.9228C19.6268 12.9135 19.6296 12.9041 19.6461 12.899L19.625 12.9028C19.6304 12.8688 19.6281 12.8274 19.6272 12.7813C19.5062 12.8361 19.4048 12.8918 19.5486 12.9253C19.3943 12.9751 19.2355 13.0235 19.1591 13.0461C19.5107 13.0664 19.7118 13.1734 19.9241 13.1616C19.8037 13.3285 19.8725 13.5275 19.4233 13.681C19.3685 13.7305 19.5626 13.7132 19.6351 13.72C19.6797 13.6877 19.6685 13.6589 19.7345 13.6382C19.6249 13.7372 19.7154 13.897 19.3986 13.9585C19.5556 14.0469 19.6875 13.858 19.6499 14.0145L19.7442 13.9821C20.2928 14.2048 18.9764 14.5629 19.6758 14.7958C19.6303 14.782 19.6135 14.7718 19.5578 14.7752C19.8913 15.1005 19.3714 15.5683 19.8777 15.8647C19.985 15.9533 19.7792 15.9925 19.6287 16.079L19.8953 16.0685L19.6027 16.2136C19.3983 16.3957 20.2799 16.3889 19.8809 16.6391L19.7015 16.6406C19.742 16.7037 19.6216 16.8707 19.826 16.8361C19.793 16.8464 19.643 16.8823 19.7382 16.8959L19.8766 16.882L19.6605 17.0861C19.7744 17.2021 20.2059 16.9923 20.2578 17.1811C20.2141 17.2594 19.877 17.4368 19.7817 17.4231C19.7706 17.3943 19.687 17.3587 19.5472 17.3773L19.4839 17.4547C19.0767 17.5192 18.6658 17.6284 18.365 17.5064L18.6033 17.3601L18.4026 17.35L18.403 17.4467C18.2125 17.4194 18.3742 17.3617 18.4801 17.3074C18.3747 17.3109 18.2962 17.3074 18.2567 17.2903L18.6334 17.1301C18.4723 17.1371 18.3231 17.2189 18.227 17.1592C18.4034 17.0856 18.5888 17.1623 18.6998 17.0587C18.5094 17.0313 18.3593 17.0671 18.5099 16.9806C18.4044 16.9841 18.3371 17.0095 18.2939 17.0371C18.4147 16.9669 18.3316 16.8806 18.543 16.8227C18.3073 16.7969 18.5828 16.6262 18.198 16.6823C18.2864 16.6531 18.4892 16.5418 18.5002 16.4891C18.051 16.6427 18.4528 16.3017 17.9587 16.3907C18.3647 16.2648 18.1115 16.1166 18.3316 15.9647C18.2987 15.975 18.2328 15.9957 18.2541 16.0073C18.2091 15.9427 18.0855 15.9408 18.0019 15.9052C18.3415 15.8506 18.407 15.7332 18.6118 15.6479C18.2718 15.6056 18.2174 15.7519 17.8937 15.7705C18.1719 15.7381 18.1539 15.585 18.3875 15.5848C18.1757 15.5458 18.2811 15.5423 17.9918 15.5459C18.42 15.4776 18.0582 15.4745 18.3128 15.3891C18.0899 15.3213 17.9064 15.4182 18.0262 15.3019C17.8914 15.2712 17.7489 15.3805 17.7489 15.3805L17.6915 15.3732ZM18.151 12.8313C18.151 12.8313 18.1428 12.8746 18.1445 12.8853C18.1473 12.876 18.153 12.8573 18.1601 12.834L18.151 12.8313ZM18.1303 12.6214C18.1303 12.6214 18.148 12.6777 18.1486 12.7084C18.2344 12.704 18.3199 12.6842 18.3151 12.6674C18.2597 12.6862 18.2031 12.6436 18.1303 12.6214ZM19.8859 12.8294C19.9168 12.793 19.8685 12.7885 19.8187 12.7886C19.8145 12.8026 19.8088 12.8212 19.8003 12.8492C19.7898 12.8511 19.7793 12.853 19.7733 12.8562C19.8214 12.8454 19.8634 12.8378 19.8964 12.8275L19.8859 12.8294Z" fill="#F48236"/>
<path d="M19.5668 12.9307C19.5668 12.9307 19.5535 12.942 19.5521 12.9466C19.5293 12.9397 19.5111 12.9342 19.496 12.9347L19.5725 12.9121L19.5668 12.9307Z" fill="#F48236"/>
<path d="M11.7 10.494C11.7 10.494 11.7109 10.5079 11.7233 10.517C11.7155 10.5093 11.7078 10.5017 11.7046 10.4954L11.7 10.494Z" fill="#F48236"/>
<path d="M17.3299 9.8441L17.3916 9.8374L17.3439 9.86361L17.3299 9.8441Z" fill="#F48236"/>
<path d="M11.6426 11.9272C11.6426 11.9272 11.6717 11.9614 11.6811 11.9795C11.6689 11.9707 11.655 11.9513 11.6426 11.9272Z" fill="#F48236"/>
<path d="M11.3811 12.3462L11.4074 12.456C11.3897 12.3997 11.3845 12.3676 11.3811 12.3462Z" fill="#F48236"/>
<path d="M11.2381 12.7196C11.2014 12.6932 11.177 12.6756 11.1525 12.658L11.2381 12.7196Z" fill="#F48236"/>
<path d="M15.2244 8.20206C15.2244 8.20206 15.2363 8.19554 15.2409 8.19691C15.2994 8.19952 15.2726 8.20655 15.2244 8.20206Z" fill="#F48236"/>
<path d="M13.6592 9.2324C13.7047 9.24623 13.7502 9.26005 13.7849 9.26041C13.7781 9.29906 13.7665 9.32097 13.6592 9.2324Z" fill="#F48236"/>
<path d="M13.8344 9.19429C13.8521 9.25055 13.8282 9.26365 13.7844 9.26052C13.7884 9.23119 13.786 9.18978 13.8344 9.19429Z" fill="#F48236"/>
<path d="M10.2995 14.0732L10.2937 14.0925C10.2937 14.0925 10.273 14.0757 10.2651 14.068L10.301 14.0684L10.2995 14.0732Z" fill="#F48236"/>
<path d="M10.2604 14.0713L10.2244 14.0709C10.2244 14.0709 10.2383 14.0593 10.2604 14.0713Z" fill="#F48236"/>
<path d="M10.1532 14.064L10.2257 14.0708C10.2257 14.0708 10.2158 14.1034 10.1532 14.064Z" fill="#F48236"/>
<path d="M10.5246 13.6118L10.598 13.6647C10.598 13.6647 10.5567 13.6369 10.5246 13.6118Z" fill="#F48236"/>
<path d="M10.6411 13.505C10.6329 13.5483 10.7309 13.7001 10.6556 13.7027L10.599 13.6601C10.7179 13.7267 10.5026 13.4374 10.6457 13.5063L10.6411 13.505Z" fill="#F48236"/>
<path d="M10.1822 12.3021L10.1579 12.4474C10.0976 12.368 10.0201 12.263 9.96504 12.2972C9.84446 11.9908 10.1099 12.4582 10.1867 12.3035L10.1822 12.3021Z" fill="#F48236"/>
<path d="M10.3228 11.9026C10.245 11.9299 10.2156 11.8141 10.1712 11.7802C10.2636 11.8032 10.2878 11.8055 10.3228 11.9026Z" fill="#F48236"/>
<path d="M12.1104 9.66737L11.9343 9.52735C11.9911 9.50391 12.0018 9.58346 12.1104 9.66737Z" fill="#F48236"/>
<path d="M13.3459 9.98684L13.4268 10.1132L13.2513 10.0039L13.3459 9.98684Z" fill="#F48236"/>
<path d="M12.313 8.70647L12.2738 8.70472L12.3926 8.68994L12.313 8.70647Z" fill="#F48236"/>
<path d="M15.6864 4.62251L15.7951 4.9354C15.7405 4.9188 15.5884 4.61815 15.6864 4.62251Z" fill="#F48236"/>
<path d="M17.6915 2.57088C17.7756 2.24532 17.8801 1.9667 17.8446 2.23068C17.7893 2.33091 17.6956 2.62299 17.6915 2.57088Z" fill="#F48236"/>
<path d="M19.4771 9.00586L19.5635 8.95068L19.4974 9.03744L19.4771 9.00586Z" fill="#F48236"/>
<path d="M56.7045 55.243C56.7407 55.3201 56.7065 55.498 56.5956 55.4541L56.5384 55.1518L56.7091 55.2443L56.7045 55.243Z" fill="#F48236"/>
<path d="M55.898 55.7357C55.7759 55.5815 55.6426 55.3171 55.7475 55.0538C55.8572 55.3467 55.8972 55.2316 56.0141 55.5827C56.125 55.6266 56.2175 55.502 56.2063 55.3918C56.2425 55.4689 56.3862 55.3396 56.4381 55.5284C56.2721 55.7476 56.0851 55.7416 55.9032 55.5388C55.8547 55.6004 55.8894 55.6822 55.898 55.7357Z" fill="#F48236"/>
<path d="M44.7419 54.838L44.8184 54.8154C44.8184 54.8154 44.7675 54.8356 44.7419 54.838Z" fill="#F48236"/>
<path d="M37.9331 53.369C37.9817 53.3889 37.9959 53.4237 37.9875 53.4517C37.9476 53.4192 37.9123 53.3881 37.9331 53.369Z" fill="#F48236"/>
<path d="M36.6927 53.328C36.7183 53.3256 36.7424 53.3278 36.7666 53.3301C36.7322 53.3451 36.7007 53.3508 36.6927 53.328Z" fill="#F48236"/>
<path d="M44.7412 54.8379L44.5403 54.8939C44.5459 54.7938 44.6463 54.8396 44.7412 54.8379Z" fill="#F48236"/>
<path d="M54.424 54.9112C54.4635 54.9283 54.4897 54.9566 54.5176 54.9956C54.4872 54.9812 54.4568 54.9669 54.4249 54.9572C54.4246 54.9419 54.4243 54.9265 54.424 54.9112Z" fill="#F48236"/>
<path d="M47.7243 55.5871L47.7817 55.5943C47.7914 55.6278 47.8028 55.672 47.8083 55.7194L47.7257 55.5824L47.7243 55.5871Z" fill="#F48236"/>
<path d="M50.0511 55.9428C49.9954 55.9462 50.0116 55.6967 50.0064 55.5832C50.0236 55.6902 50.0563 55.7459 50.099 55.7691C50.0939 55.8184 50.0769 55.8743 50.0511 55.9428Z" fill="#F48236"/>
<path d="M53.8126 55.8953L53.8752 55.9346C53.8752 55.9346 53.8325 55.9115 53.8126 55.8953Z" fill="#F48236"/>
<path d="M46.0488 55.3779C46.0375 55.4152 46.0276 55.4478 46.0128 55.4637C46.0213 55.4357 46.0312 55.4031 46.0488 55.3779Z" fill="#F48236"/>
<path d="M18.0842 7.57534C18.0842 7.57534 18.0566 7.56694 18.0427 7.56274C18.0686 7.5603 18.0885 7.56118 18.0842 7.57534Z" fill="#F48236"/>
<path d="M17.9873 4.57422L17.9578 4.60595C17.9123 4.59213 17.8682 4.57364 17.8287 4.55654L17.9859 4.57888L17.9873 4.57422Z" fill="#F48236"/>
<path d="M34.5068 52.9131C34.5068 52.9131 34.5115 52.9145 34.5162 52.916C34.5625 52.967 34.5325 52.9473 34.5068 52.9131Z" fill="#F48236"/>
<path d="M18.1462 41.0202C18.4638 41.0709 18.152 40.5437 18.5585 40.6774C18.4597 40.7084 18.4341 41.1688 18.1462 41.0202Z" fill="#F48236"/>
<path d="M54.3618 54.9377C54.3299 54.928 54.2998 54.9291 54.2651 54.9287C54.3118 54.9225 54.3405 54.9261 54.3618 54.9377Z" fill="#F48236"/>
<path d="M29.8835 50.7651C29.9144 50.7287 29.9457 50.7076 29.9814 50.688C29.9698 50.7099 29.9431 50.7323 29.8835 50.7651Z" fill="#F48236"/>
<path d="M33.4795 51.98L33.38 51.9803C33.4221 51.9727 33.4553 51.9777 33.4795 51.98Z" fill="#F48236"/>
<path d="M28.31 49.5182C28.2585 49.5077 28.2259 49.5334 28.1823 49.4642C28.1942 49.4576 28.2061 49.451 28.2167 49.4492C28.2235 49.492 28.2437 49.5235 28.31 49.5182Z" fill="#F48236"/>
<path d="M26.5595 48.457C26.5595 48.457 26.5984 48.4434 26.6163 48.4336C26.6317 48.4485 26.647 48.4633 26.6624 48.4781L26.5578 48.4463L26.5595 48.457Z" fill="#F48236"/>
<path d="M16.2067 13.3756C16.1498 13.3176 16.0796 13.2708 16.011 13.2347C16.1737 13.3045 16.301 13.0328 16.2067 13.3756Z" fill="#F48236"/>
<path d="M54.4108 55.0547C54.4051 54.9919 54.3908 54.957 54.3604 54.9427C54.3832 54.9496 54.4059 54.9565 54.4241 54.962C54.4278 54.9988 54.427 55.0342 54.4108 55.0547Z" fill="#F48236"/>
<path d="M29.2049 47.7343L28.9191 47.6118C29.0056 47.6381 29.1074 47.6792 29.2049 47.7343Z" fill="#F48236"/>
<path d="M15.1831 27.5818L15.2058 27.5073C15.2058 27.5073 15.2098 27.5594 15.1831 27.5818Z" fill="#F48236"/>
<path d="M28.1553 47.1152C28.0613 47.163 27.9862 47.1809 27.9138 47.1741C27.9117 47.1481 27.9083 47.1267 27.9168 47.0987L28.1507 47.1139L28.1553 47.1152Z" fill="#F48236"/>
<path d="M13.6788 17.1154C13.6788 17.1154 13.6995 17.0963 13.7006 17.0763C13.7191 17.0972 13.7362 17.1227 13.7456 17.1408C13.7186 17.1479 13.6916 17.1549 13.6646 17.162C13.6703 17.1434 13.6746 17.1294 13.6802 17.1108L13.6788 17.1154Z" fill="#F48236"/>
<path d="M44.8296 54.81L44.8158 54.8058C44.8158 54.8058 44.8386 54.7968 44.8477 54.7837C44.8386 54.7968 44.8371 54.8017 44.8296 54.81Z" fill="#F48236"/>
<path d="M15.2373 26.9164L15.1711 26.9218L15.2227 26.8662L15.2373 26.9164Z" fill="#F48236"/>
<path d="M48.2091 54.4979C48.2091 54.4979 48.2323 54.4541 48.2607 54.4424C48.2565 54.4564 48.2344 54.4802 48.2091 54.4979Z" fill="#F48236"/>
<path d="M49.615 54.6298L49.8232 54.5659C49.7321 54.6044 49.6676 54.6204 49.615 54.6298Z" fill="#F48236"/>
<path d="M50.7048 54.6408C50.7117 54.6836 50.7109 54.719 50.7115 54.7497L50.7048 54.6408Z" fill="#F48236"/>
<path d="M34.1695 50.429C34.1695 50.429 34.1436 50.4161 34.1373 50.404C34.0665 50.3265 34.1185 50.3677 34.1695 50.429Z" fill="#F48236"/>
<path d="M38.801 52.6204C38.7591 52.5619 38.7218 52.5048 38.6757 52.4602C38.7678 52.4679 38.8375 52.484 38.801 52.6204Z" fill="#F48236"/>
<path d="M29.2344 47.7489L29.2043 47.7292L29.2373 47.7393L29.2344 47.7489Z" fill="#F48236"/>
<path d="M38.4468 52.3959C38.5488 52.3709 38.6174 52.407 38.6757 52.4604C38.5972 52.4569 38.5083 52.4553 38.4468 52.3959Z" fill="#F48236"/>
<path d="M55.3903 54.9552L55.4414 54.9504C55.4414 54.9504 55.442 54.9812 55.4438 54.9919L55.3889 54.9599L55.3903 54.9552Z" fill="#F48236"/>
<path d="M55.4477 54.9933L55.5026 55.0252C55.4784 55.023 55.4543 55.0207 55.4477 54.9933Z" fill="#F48236"/>
<path d="M55.6208 55.0965L55.5033 55.0252C55.5471 55.0283 55.5982 55.0235 55.6208 55.0965Z" fill="#F48236"/>
<path d="M53.9491 54.9706L53.9428 54.877C53.9428 54.877 53.9528 54.9259 53.9491 54.9706Z" fill="#F48236"/>
<path d="M53.5167 54.905C53.6235 54.8968 53.7967 54.7357 53.9338 54.8079L53.9413 54.8814C53.8843 54.742 53.6013 55.0681 53.5167 54.905Z" fill="#F48236"/>
<path d="M51.5793 55.8529L51.9539 55.8141C51.8773 55.9028 51.7802 56.0259 51.9468 56.0664C51.4497 56.3122 52.0648 55.858 51.5807 55.8483L51.5793 55.8529Z" fill="#F48236"/>
<path d="M50.4273 55.864C50.6201 55.9327 50.409 56.006 50.4117 56.0627C50.2996 55.9574 50.272 55.9338 50.4273 55.864Z" fill="#F48236"/>
<path d="M42.2585 54.4904L42.2284 54.7204C42.0839 54.6561 42.2448 54.6338 42.2585 54.4904Z" fill="#F48236"/>
<path d="M41.0047 52.9748L41.1805 52.8705L41.1969 53.0943L41.0047 52.9748Z" fill="#F48236"/>
<path d="M39.6876 54.3298L39.7473 54.3785L39.5184 54.2325L39.6876 54.3298Z" fill="#F48236"/>
<path d="M26.7495 48.8458L26.9352 48.6275C26.9944 48.7269 26.8478 49.0131 26.7495 48.8458Z" fill="#F48236"/>
<path d="M22.0598 44.9014C21.9164 44.9647 21.7313 44.9033 21.749 44.7306C21.8636 44.8112 22.0313 44.8317 22.0598 44.9014Z" fill="#F48236"/>
<path d="M13.2305 28.8407L13.1579 28.9815L13.1997 28.7296L13.2305 28.8407Z" fill="#F48236"/>
<path d="M17.1109 11.3504C17.0368 11.6434 16.7668 11.4036 16.5696 11.4149C16.3815 11.7393 16.7549 11.6391 16.8832 11.8053C16.7394 12.0007 16.4081 12.0934 16.3781 12.2573C16.4253 12.2818 16.4382 12.3214 16.5101 12.2974C16.1999 12.4677 16.3215 12.983 15.944 13.1787C15.9657 13.2056 15.9901 13.2232 16.0129 13.2301C15.8636 13.1491 15.7043 13.1007 15.5895 13.0862C15.5499 13.2166 15.3342 13.2885 15.5276 13.388C15.538 13.3046 15.6242 13.3155 15.7006 13.293L15.5794 13.4139C15.8485 13.6076 15.7253 13.2445 15.9479 13.2969C15.787 13.5482 15.4681 13.8126 15.5028 14.0419C15.7837 14.1476 15.7151 13.5722 15.9057 13.9099L15.8672 13.5624C16.2675 13.913 15.8797 13.3576 16.3175 13.6993C16.3035 14.1377 16.0594 14.1398 16.0545 14.581C15.8718 14.6426 15.8208 14.4998 15.6381 14.5613C15.2178 15.1104 16.2789 15.1835 15.7993 15.5517C15.5822 15.6282 15.2005 15.6088 15.337 15.9607L15.6902 15.9104C15.6518 16.3312 15.1703 16.0678 15.3198 16.5407C15.4664 16.4835 15.4885 16.2307 15.517 16.3004C15.7314 16.6251 15.2927 16.4663 15.2563 16.6842L15.5429 16.7713C15.4248 17.2087 15.1369 17.6656 15.0184 18.1537C15.1084 18.1353 15.2141 18.0656 15.2904 18.1906C15.058 18.7916 15.1703 19.5178 15.2938 20.1252L15.0206 20.3373C15.0187 20.3927 15.1281 20.4412 15.1843 20.3871C15.2659 20.6256 15.0201 20.388 14.9091 20.4917C14.8785 20.6249 15.0423 20.6746 15.1252 20.5981C14.8707 20.9939 14.5842 21.7566 14.8431 22.1966L14.9229 22.114C15.0185 22.4534 14.3861 22.4902 14.617 22.8097L14.6655 22.7481C14.7599 23.4841 14.538 24.3122 14.9556 24.8513C14.5828 24.9823 15.1519 25.5623 14.6441 25.6471C14.9308 26.0447 15.0142 25.9174 15.2303 26.4817C15.2694 26.631 14.931 26.7469 14.8989 26.9509L15.1711 26.9217L14.9162 27.2207L15.2529 27.3231L15.2022 27.5061C15.1782 27.4378 15.0653 27.3678 14.9889 27.3904C14.8969 27.6932 15.2702 28.0509 15.404 28.0356L15.2715 28.7331C15.3764 28.6989 15.3967 28.5829 15.452 28.4827C15.2308 28.8836 15.7416 28.4944 15.5454 28.8622C15.4754 28.8307 15.3897 28.9166 15.3357 28.9307C15.5252 29.0596 15.5941 29.4214 15.5725 29.7049L15.7441 29.6146C15.8904 30.0814 15.8624 30.6479 16.0085 31.1808C15.8756 31.0132 15.569 31.1388 15.5815 31.3105L15.8736 31.2975C15.7288 31.4469 15.7262 31.1611 15.5702 31.4292C15.6554 31.623 15.9193 31.4742 15.9814 31.3354L15.949 31.6054C16.0363 31.5963 16.062 31.5278 16.1652 31.4828C16.0204 31.6322 16.5515 31.814 16.2968 32.0469L16.3855 32.0332C16.5555 32.553 16.5217 32.8277 16.6566 33.2503C16.4248 33.3427 16.5392 33.4894 16.3939 33.6895C16.5804 33.9751 16.8798 34.2493 17.0212 34.6179C17.0121 34.9256 16.8585 34.7771 16.77 34.9538C16.9856 34.8819 17.1197 35.2585 17.1884 34.9995C17.3316 35.4603 17.3926 35.5704 17.4789 36.2022C17.37 36.1843 17.2997 36.1375 17.2484 36.2084C17.2627 36.3247 17.4404 36.394 17.5296 36.3295L17.5409 36.2923C17.5413 37.076 18.8294 37.3505 18.6983 38.0433L18.7096 38.0061L18.7774 38.6169C18.9411 38.8143 18.8454 38.3934 19.0581 38.4784C19.0751 39.1908 19.6172 39.2385 19.6988 39.7875C20.461 39.6833 20.4655 40.911 21.137 41.0234L20.9984 41.1034C20.9662 41.3074 21.1684 41.1653 21.2568 41.2176C21.1557 41.2887 21.0576 41.2029 21.0464 41.3216C21.3246 41.8285 21.7827 42.2018 22.2421 42.5704C22.7293 42.8966 23.2257 43.2255 23.7038 43.5489C24.0418 43.7941 23.3424 44.3295 23.9873 44.3984L24.0668 44.0714C24.2606 44.4967 24.6125 44.7614 24.9553 45.0233C25.2952 45.2945 25.6496 45.5346 25.901 45.901C25.9024 45.8149 25.9492 45.7426 25.8835 45.6972C26.1488 45.6252 26.4154 46.0726 26.3218 46.2172C26.4375 46.2778 26.4356 46.1042 26.5527 46.0787C26.7607 46.0809 26.7655 46.5556 26.9621 46.4321C26.9933 46.4111 26.9589 46.3446 26.9432 46.3144C26.9823 46.4637 27.4068 46.5876 27.179 46.7321C27.5045 46.8056 27.626 47.158 27.9111 47.1683C27.9083 47.4881 28.4434 47.3301 28.2877 47.695C28.4721 47.3338 28.9252 47.6903 29.0074 47.9595C29.0107 47.818 29.218 47.937 29.2354 47.7489C29.4263 47.8731 29.5771 48.0309 29.4417 48.1984C30.04 47.963 30.0064 48.9399 30.5028 48.5005C30.9968 49.017 31.5168 49.399 32.0288 49.7581C32.1736 49.3798 31.433 49.4295 31.6366 49.0537C32.0861 49.455 32.2475 49.9213 32.8198 50.0494C32.9813 50.0578 32.8099 49.8531 32.7902 49.7707C33.2619 50.1482 33.8278 50.1828 34.2319 50.5702C34.2432 50.5329 34.2059 50.4758 34.1703 50.4294C34.2602 50.477 34.4151 50.4579 34.334 50.6267L34.26 50.5431C34.0075 50.7361 34.4404 51.2085 34.4084 51.3464C34.4336 50.7892 34.9371 51.4053 34.9139 50.6808C34.9662 50.7374 35.0121 50.848 34.954 50.9576C35.058 50.9587 35.1142 50.9045 35.0702 50.7385C35.3746 50.9633 35.1889 51.1002 35.5017 51.2156C35.5272 51.1318 35.4793 51.0765 35.4832 50.9658C35.5795 51.1884 35.679 51.4171 35.9732 51.4302C35.9751 51.3748 36.0268 51.3192 35.9508 51.2911C36.399 51.468 36.5826 51.9919 37.142 51.9991C37.1111 51.5776 37.3502 51.9352 37.4798 51.6235C37.5608 51.6837 37.6405 51.7487 37.717 51.8075L37.5611 51.9281C37.7991 51.9953 37.9435 52.2885 38.1808 52.2436L38.043 52.0593L38.4719 52.2507L38.1789 52.299C38.3704 52.5353 38.033 52.6974 38.3797 52.701C38.3259 52.649 38.6222 52.7696 38.8031 52.6159C38.8903 52.7544 38.9865 52.8956 39.188 52.8703C39.2646 52.7816 39.2501 52.5025 39.2986 52.4409C39.3393 52.7484 39.8397 52.6715 39.914 52.9994C39.8838 52.919 39.9257 52.7485 39.9506 52.7154L39.9901 52.9615C40.122 52.9201 40.1455 52.8917 40.1639 52.7497C40.5129 52.7947 39.9483 53.1319 40.3976 53.0598C40.37 53.0362 40.3949 53.0031 40.3352 52.9544C40.7635 52.9675 41.0819 53.2933 41.4781 53.2814C41.6682 52.983 41.175 53.118 41.3691 52.8717C41.8841 53.074 42.3902 53.5179 42.9291 53.5596L42.8254 53.5739C42.7927 54.0575 43.2672 53.4283 43.4807 53.7069C43.421 53.6582 43.4511 53.4282 43.4583 53.4863C43.8292 53.4922 44.1629 53.7514 44.6833 54.0012L44.6385 53.8705C44.8724 53.8042 45.2076 53.9112 45.4486 53.903C45.4934 54.0336 45.6307 54.0398 45.5163 54.2034C46.3436 53.656 46.8062 54.799 47.5356 54.3287C47.46 54.3159 47.3731 54.1928 47.4337 54.2061L47.9515 54.3991C47.877 54.5953 47.8618 54.5143 47.7244 54.6558C47.7737 54.7878 47.9117 54.906 48.0447 54.9261C47.8243 54.7523 48.1001 54.5969 48.2202 54.4961C48.1927 54.5538 48.2183 54.6329 48.1999 54.6934C48.5358 54.3732 48.1856 55.1165 48.6055 54.9287L48.6003 54.8151C48.7373 54.8873 48.8475 55.048 49.0101 55.0363C49.1096 54.8071 48.8704 54.9074 48.8906 54.71C49.107 54.7503 49.2593 55.2139 49.4873 55.0033C49.4013 54.9263 49.2683 54.9062 49.1869 54.8306C49.4427 54.5776 49.4547 54.6525 49.6216 54.6268L49.6051 54.632L49.9924 54.5513L49.8881 54.6163C50.0773 55.2691 50.4284 54.8008 50.7478 55.2541C50.4364 54.8236 50.7177 55.0261 50.7228 54.7478C50.827 54.6828 50.981 54.6177 50.9462 54.5359C51.0926 54.7737 51.2556 54.4009 51.4643 54.7442C51.4898 54.6604 51.6499 54.7548 51.638 54.5324C51.8538 54.6235 51.5685 54.6792 51.5752 54.7881C51.8922 55.1185 52.4364 54.5054 52.8931 54.9648C53.3103 55.1781 53.3584 55.4776 53.7494 55.6626C53.8976 55.5347 53.6706 55.3334 53.6706 55.3334C53.9007 55.2303 54.0655 55.2601 54.2638 55.3763C54.2276 55.2991 54.2761 55.2376 54.3496 55.1429C54.5131 55.1773 54.4344 55.4689 54.6628 55.3551C54.6337 55.2546 54.5974 55.0961 54.5291 54.9939C54.7193 55.0873 54.8992 55.2641 55.094 55.3589C55.1589 55.2107 54.9928 55.1195 54.9304 55.0141C55.1537 55.0972 55.5082 55.1897 55.5613 55.4399L55.4091 55.5158C55.4938 55.5313 55.4714 55.3108 55.4116 55.2621C55.2298 55.0593 55.1235 55.3272 55.1026 55.4124L55.2411 55.48C55.0489 55.9813 54.6674 55.3565 54.3721 55.3634L54.4595 55.7462L54.1877 55.4142C54.1156 55.5042 54.0533 55.7092 54.1918 55.7767C53.966 55.9473 54.0171 55.6321 53.8203 55.8216C53.7968 55.85 53.8048 55.8728 53.8201 55.8877L53.6261 55.7575C53.6609 55.8393 53.5665 56.0192 53.6983 55.9779C53.3114 56.1554 53.134 55.6435 52.9689 55.9088L52.9965 55.9325C52.4986 55.7557 52.976 55.6566 52.6283 55.2964L52.2973 55.9439L52.2768 55.6679C52.2257 55.6728 52.1188 55.681 52.1241 55.7945C51.9482 55.5884 52.1686 55.6808 52.0774 55.4903C51.7954 55.715 51.3925 55.3076 51.2878 55.7337C51.2188 55.5194 51.5474 55.5989 51.2968 55.4261C51.1612 55.8886 50.9946 55.3087 50.739 55.4957C50.7771 55.7464 51.0163 55.6461 50.7561 55.8316C50.6664 55.4075 50.294 55.8642 50.1112 55.7628C50.1455 55.4374 49.7065 55.5737 49.3931 55.4275C49.3998 55.5364 48.756 55.529 48.4349 55.6044L48.4375 55.6612C48.4249 55.3266 48.1086 55.3373 47.891 55.2356C47.8708 55.433 47.8996 55.5181 48.0072 55.622L47.794 55.5877C47.7586 55.4752 47.7031 55.4125 47.5677 55.3511L47.5802 55.6042C47.2943 55.5478 47.0529 55.2302 46.6585 55.3342C46.6781 55.1061 47.0554 54.7476 46.6971 54.5369C46.6603 54.658 46.6116 54.8671 46.7063 54.9315C46.6773 54.9125 46.6044 54.8089 46.5315 54.8529L46.6505 55.0825C46.4664 55.1486 46.5926 54.8969 46.4585 54.8969C46.4302 55.0715 46.3401 55.0085 46.3323 55.1486C46.3644 55.1736 46.4624 55.0965 46.5 55.169C46.3434 55.1774 46.1459 55.2548 46.0594 55.376C46.0891 55.2782 46.1001 55.1441 45.9951 55.097C45.712 55.0313 45.8618 55.2905 45.6805 55.3474C45.6326 55.2107 45.4295 55.3067 45.4741 55.0455C45.3894 55.0299 45.3525 55.151 45.3086 55.214C45.1822 55.0738 44.6271 55.0526 44.8454 54.8086L44.8889 54.7964C44.8889 54.7964 44.8752 54.7922 44.8689 54.7801C44.4399 54.4258 43.8434 54.7534 43.3898 54.529L43.3735 54.6156C43.1141 54.4554 42.7576 54.4183 42.5993 54.187C42.516 54.1668 42.3664 54.2994 42.3762 54.4143C42.1765 54.3027 42.173 54.1999 41.8277 54.2731C42.011 54.4712 41.723 54.3888 42.0223 54.434C41.7256 54.4456 41.6271 54.5734 41.3829 54.2651C41.4315 54.5139 41.1055 54.4911 40.9874 54.3891L41.2235 54.2828C41.0804 54.2138 40.946 54.1984 40.8115 54.183L40.8116 54.4934C40.1433 54.6974 39.9355 53.6318 39.3434 54.1082C39.2482 53.8656 39.695 54.0472 39.6233 53.7761C39.3516 53.7545 38.9631 54.0842 38.8812 54.0594C38.4768 54.1145 38.666 53.5411 38.2636 53.5409C38.3402 53.4522 38.4647 53.1899 38.2201 53.0137C37.948 52.9768 37.77 53.3501 37.9097 53.4791C37.9705 53.5078 38.0077 53.4835 38.019 53.4462C38.0942 53.5097 38.1906 53.5849 38.052 53.6648L38.0467 53.5513C37.8868 53.6197 37.5302 53.5012 37.5612 53.6938C37.3939 53.5411 37.5302 53.5012 37.6914 53.4942C37.3095 53.5409 37.164 53.3492 36.7928 53.3279C36.8644 53.2886 36.9543 53.1888 36.8997 53.1722C36.3608 53.1305 36.7423 52.9055 36.4181 52.7459C36.1771 52.8355 36.3639 53.1365 36.0652 52.8931C35.8217 52.9259 35.9285 53.1467 35.9849 53.2554C35.7379 52.9564 35.355 53.1861 35.1631 53.1634L35.3 53.3016C35.2155 53.22 35.1382 53.1965 35.0531 53.1656L35.2186 52.9971C35.1087 52.9992 35.0282 52.9697 35.0027 53.0535C34.9496 52.8848 35.1956 52.7458 35.0686 52.4935C34.9038 52.5452 34.7229 52.2409 34.5831 52.4884C35.0169 52.549 34.4419 52.7406 34.7632 52.9095C34.7109 52.8529 34.6304 52.8234 34.5204 52.8255C34.4937 52.848 34.5125 52.8842 34.5341 52.9111C34.0596 53.001 34.4666 52.5446 34.0688 52.3983C34.0631 52.5644 33.8688 52.6478 33.8164 52.5912C33.9773 52.6503 33.987 52.3734 33.8856 52.2001C33.586 52.221 33.6452 52.01 33.5073 51.9732L33.6807 51.975C33.6879 51.8042 33.5503 51.7827 33.3986 51.6603C33.336 51.7684 33.5236 51.8051 33.4412 51.831C33.3516 51.4882 32.8987 51.9154 32.6986 51.6256C32.5306 51.6712 32.5713 51.8973 32.4314 51.9159C32.2111 51.5945 32.0151 51.9776 31.7621 51.6819C31.9399 51.5222 31.9334 51.5762 31.7952 51.2951L32.2575 51.6544L32.0455 51.2236C32.205 51.2873 32.3235 51.4862 32.4307 51.4933C32.3417 51.2627 32.3338 51.3214 32.4789 51.1874C32.1378 51.3941 32.1284 50.8366 31.7971 50.9293L31.5896 51.4157C31.1201 51.4562 31.0449 50.8533 30.5093 50.7516L30.702 50.7389C30.7293 50.5182 30.4199 50.5717 30.3023 50.419C30.2363 50.5872 30.1144 50.5959 29.9996 50.6628C30.0623 50.5547 29.6481 50.4949 29.7665 50.1544L29.4534 50.2526C29.0275 50.1333 29.2563 49.5769 28.8661 49.438C28.8812 49.6665 28.6601 49.6909 28.8383 49.9384C28.7134 49.875 28.5923 49.8484 28.6459 49.7375C28.5175 49.8002 28.4272 49.3453 28.2388 49.4255C28.2279 49.3305 28.3013 49.1544 28.1614 49.0915C28.1302 49.1126 28.1178 49.1698 28.1178 49.1698C28.1614 49.0915 27.9686 48.9413 28.1822 48.8434C27.5453 49.1078 27.1932 48.2223 26.6423 48.4161C26.4241 48.2022 26.151 47.9564 25.9322 47.7932C25.9166 47.8444 25.8854 47.8655 25.9354 47.8807C25.5286 47.813 26.0226 47.3322 25.5791 47.2381C25.2436 47.3448 25.6732 47.5008 25.5016 47.5097C25.1229 47.9543 25.1311 47.1426 24.7006 47.251L24.7396 47.3188C24.4478 47.3471 24.4256 46.8315 24.1278 46.6342C24.1278 46.6342 24.1122 46.6854 24.0764 46.7051C24.0612 46.3137 23.766 45.9441 23.548 45.6641C23.488 45.9105 23.5939 45.8562 23.3977 45.995C23.2958 45.8725 23.6654 45.7355 23.4662 45.4917C23.313 45.5215 23.0782 45.4603 22.8976 45.6293L23.1082 45.8358C22.79 45.9833 22.8302 45.5732 22.6798 45.5122L22.6037 45.6316C22.2941 45.2932 22.524 45.0273 22.1488 44.725L22.2565 44.6814C22.3006 44.2419 21.9668 44.6697 21.955 44.2997L21.6546 44.5035C21.5875 44.3152 21.4574 43.8279 21.2834 43.5664C21.2247 43.8742 21.3899 44.2297 21.4465 44.5013C21.319 44.3812 21.0416 44.0679 21.1041 43.8783C21.1312 43.9526 21.1336 44.0755 21.2198 44.0864C21.2597 43.7424 21.1665 43.4443 20.934 43.1956C20.4843 43.7102 20.1969 42.6612 19.6528 42.8164C19.4503 42.1747 18.7841 41.9468 18.392 41.3239C18.9654 41.203 18.277 41.1464 18.7399 40.8495C18.6675 40.6952 18.626 40.6521 18.5885 40.661C18.4002 40.5937 18.2208 40.5137 18.04 40.4384C17.8438 40.4296 18.032 40.6445 17.9246 40.7035C17.6838 40.4166 17.6503 40.7066 17.3932 40.5878C17.5788 40.517 17.5493 40.3197 17.3717 40.1844L17.7431 40.2871C17.7012 39.6891 17.1063 40.1749 17.0777 39.5658L17.0206 39.8029C16.9682 39.5173 16.5063 38.9444 16.7476 38.4936C16.6706 38.4855 16.5112 38.5031 16.5377 38.6283C16.1759 38.0858 16.272 37.1482 15.8345 36.8218L15.7385 36.925C15.7225 36.798 15.8743 36.6253 15.6889 36.5486C15.6444 36.5809 15.5884 36.6504 15.5588 36.6007C15.5724 36.5234 15.6311 36.2156 15.5023 36.1001L15.4201 36.2888C15.0181 35.7799 15.3771 35.253 15.2796 34.7399C14.9208 34.8904 14.6352 34.4729 14.4909 34.2611L14.4432 34.2873C14.1525 33.6087 14.359 32.9947 14.3198 32.306C14.0638 32.1671 13.9321 31.832 13.8104 31.4642C13.705 31.0913 13.6156 30.6825 13.4302 30.3768C13.5238 30.4612 13.7195 30.2917 13.7367 30.1697C13.6299 30.0304 13.9231 29.687 13.5799 29.7862L13.5976 29.8425C13.2335 29.798 13.2674 29.4572 13.2143 29.207L13.6655 29.0795C13.2789 28.8145 13.2852 28.3686 13.297 27.9702C13.3147 27.5685 13.3663 27.2026 13.0424 27.0583C13.1446 26.8858 13.1151 26.6886 13.2217 26.5175L12.9736 26.5489C12.8822 26.114 12.8251 25.8932 12.8549 25.3374L12.6825 25.4631C12.6537 25.149 13.3869 25.0259 13.3874 24.7462L13.0107 24.6775C12.9896 24.1419 12.6715 23.6025 13.0046 23.0626C12.952 23.072 12.8423 23.0896 12.8259 23.1762C12.818 22.9244 12.594 22.1898 13.1055 22.2893C12.7706 22.2791 13.09 21.735 13.2548 21.4544L13.0053 21.4905C13.3294 21.2582 13.4152 21.2538 13.5217 20.9198C13.496 20.8407 13.3272 20.8403 13.3881 20.9504C13.2773 20.6776 13.636 20.7561 13.5285 20.4232L13.3604 20.5349C13.364 20.2612 13.4459 20.2861 13.6376 20.1459C13.7474 19.9809 13.6168 19.6257 13.4016 19.5654C13.5383 19.5408 13.7331 19.4066 13.6892 19.2406C13.6073 19.2157 13.5525 19.2652 13.5244 19.2923C13.405 18.8184 13.8763 18.6411 13.6813 18.3019C13.6011 18.2877 13.5644 18.2613 13.5428 18.2344C13.5017 18.5985 13.4818 18.8926 13.504 18.8688C13.2774 18.8458 13.27 18.5433 12.9334 18.7514C13.131 18.5265 13.5489 18.165 13.4798 17.8692C13.4599 17.853 13.44 17.8368 13.405 17.8211L13.3769 17.8481C13.3635 17.7779 13.391 17.7201 13.4352 17.6725C13.4093 17.5781 13.3944 17.5125 13.4003 17.4278C13.2183 17.3725 13.3482 17.0761 13.3633 16.9281C13.607 16.9767 13.5971 16.7803 13.773 16.9865C13.7604 16.9623 13.7403 17.0122 13.7165 17.1067C13.7095 17.13 13.7024 17.1533 13.6831 17.1678L13.7055 17.1593C13.6863 17.2552 13.6631 17.3805 13.6357 17.5197C13.7755 17.4197 13.9015 17.3156 13.7879 17.1335C13.9573 17.0832 14.1294 17.0236 14.2147 16.9884C13.9023 16.7408 13.7841 16.3284 13.582 16.2415C13.7907 15.8164 13.857 15.2056 14.3673 15.0147C14.451 14.9027 14.2645 14.8461 14.203 14.7867C14.144 14.8501 14.1321 14.9381 14.0603 14.9621C14.2246 14.7322 14.2584 14.2285 14.5841 14.2359C14.5095 13.8927 14.2562 14.35 14.3987 13.9302L14.2879 13.9678C13.9719 12.9965 15.4041 12.7805 15.0044 11.6922C15.0269 11.7652 15.0352 11.8034 15.087 11.8293C15.0811 10.6877 15.9563 9.73754 15.8535 8.57158C15.8622 8.24857 16.0709 8.28146 16.2779 8.15612L16.0504 8.00554L16.4443 7.80472C16.8038 7.456 16.0968 6.83913 16.698 6.44688L16.8409 6.58188C16.8835 6.37605 17.1733 6.01126 16.9734 5.96577C17.011 5.95682 17.1696 5.9745 17.1146 5.86111L16.9883 5.80238L17.4014 5.42418C17.4598 5.01958 16.8692 5.26241 17.0741 4.71916C17.2077 4.54098 17.6977 4.31846 17.7482 4.43047C17.7167 4.51759 17.7348 4.67065 17.8551 4.73266L18.0045 4.58469C18.3872 4.73154 18.8224 4.78749 18.8975 5.30897L18.541 5.50084L18.6816 5.67588L18.799 5.43678C18.9086 5.64821 18.7222 5.67296 18.5711 5.72879C18.6553 5.79509 18.7094 5.86242 18.7214 5.93731L18.2418 6.07649C18.3763 6.17336 18.5882 6.06476 18.5928 6.29511C18.368 6.36419 18.3116 6.02649 18.1118 6.20998C18.226 6.42279 18.3846 6.44047 18.1681 6.54769C18.2583 6.61071 18.3319 6.59746 18.4018 6.54746C18.226 6.65176 18.1981 6.92317 17.9645 6.9234C18.1214 7.15935 17.715 7.41745 18.082 7.53411C17.9783 7.54838 17.6994 7.69767 17.6341 7.8305C18.1613 7.7312 17.4713 8.36618 17.9691 8.4615C17.5059 8.51407 17.5608 9.08541 17.2314 9.35166C17.2689 9.34271 17.344 9.3248 17.3343 9.29132C17.3081 9.49198 17.4079 9.58849 17.4439 9.73172C17.1107 9.6508 16.9382 9.92404 16.6839 10.0249C16.9302 10.3592 17.1145 9.99798 17.3952 10.1698C17.1311 10.0742 17.0082 10.4949 16.8094 10.3479C16.9498 10.589 16.8582 10.5307 17.1028 10.7068C16.6775 10.6182 16.9836 10.8538 16.6867 10.9314C16.8181 11.2512 17.055 11.1095 16.8489 11.3624C16.9366 11.5315 17.1541 11.3228 17.1541 11.3228L17.1109 11.3504ZM14.9413 18.1455L14.9459 18.1469C14.9643 18.0864 14.9707 18.0324 14.9792 18.0044C14.9707 18.0324 14.958 18.0743 14.9413 18.1455ZM14.861 18.7368C14.8581 18.6647 14.8713 18.572 14.8846 18.4794C14.8041 18.4498 14.7109 18.4622 14.7076 18.5223C14.7703 18.4956 14.8003 18.6421 14.861 18.7368ZM13.3319 17.2442C13.2839 17.3365 13.3269 17.375 13.3755 17.3949C13.3897 17.3483 13.4053 17.297 13.4265 17.2272C13.4356 17.2299 13.4475 17.2234 13.458 17.2215C13.4083 17.2216 13.3662 17.2292 13.3273 17.2428L13.3319 17.2442Z" fill="#F48236"/>
</g>
<defs>
<clipPath id="clip0_1_3170">
<rect width="57.8973" height="44.2744" fill="white" transform="matrix(-0.956784 -0.2908 -0.2908 0.956784 68.5273 17.1416)"/>
</clipPath>
</defs>
</svg>
