<svg width="84" height="71" viewBox="0 0 84 71" fill="none" xmlns="http://www.w3.org/2000/svg">
<g filter="url(#filter0_d_2001_447)">
<path d="M4.88428 23.1797L3.52539 31H2.2041L3.56299 23.1797H4.88428ZM7.38184 26.6011L7.19385 27.6699H3.76172L3.94971 26.6011H7.38184ZM8.40771 23.1797L8.21973 24.2539H4.35254L4.5459 23.1797H8.40771ZM14.0201 27.6162L13.9761 27.9634C13.9175 28.3677 13.8091 28.7588 13.6509 29.1367C13.4957 29.5117 13.2906 29.8486 13.0357 30.1475C12.7838 30.4434 12.482 30.6763 12.1304 30.8462C11.7789 31.0161 11.379 31.0967 10.9307 31.0879C10.503 31.0791 10.1426 30.9839 9.84967 30.8022C9.5567 30.6206 9.32672 30.3804 9.15973 30.0815C8.99566 29.7827 8.8858 29.4517 8.83014 29.0884C8.77447 28.7222 8.77008 28.3516 8.81695 27.9766L8.86529 27.6294C8.92389 27.228 9.03229 26.8398 9.19049 26.4648C9.34869 26.0898 9.55523 25.7544 9.81012 25.4585C10.065 25.1597 10.3682 24.9253 10.7198 24.7554C11.0713 24.5854 11.4698 24.5049 11.9151 24.5137C12.3458 24.5225 12.7061 24.6177 12.9962 24.7993C13.2891 24.978 13.5176 25.2168 13.6817 25.5156C13.8487 25.8145 13.9586 26.1455 14.0113 26.5088C14.064 26.8721 14.067 27.2412 14.0201 27.6162ZM12.8951 27.9766L12.9434 27.6118C12.9698 27.3921 12.9815 27.1577 12.9786 26.9087C12.9756 26.6567 12.9405 26.4194 12.8731 26.1968C12.8057 25.9712 12.6915 25.7866 12.5303 25.6431C12.3721 25.4995 12.1465 25.4219 11.8536 25.4102C11.5518 25.3984 11.2881 25.4585 11.0626 25.5903C10.8399 25.7192 10.6524 25.8936 10.5001 26.1133C10.3477 26.333 10.2261 26.5747 10.1353 26.8384C10.0474 27.1021 9.9859 27.3613 9.95074 27.6162L9.9024 27.981C9.87311 28.1978 9.85992 28.4321 9.86285 28.6841C9.86871 28.936 9.90533 29.1748 9.97271 29.4004C10.0401 29.626 10.1544 29.8135 10.3155 29.9629C10.4766 30.1094 10.7007 30.187 10.9879 30.1958C11.2955 30.2075 11.5606 30.1475 11.7833 30.0156C12.0059 29.8838 12.1934 29.708 12.3458 29.4883C12.4981 29.2686 12.6182 29.0269 12.7061 28.7632C12.7969 28.4995 12.8599 28.2373 12.8951 27.9766ZM20.9104 24.6016L19.7985 31H18.7526L16.7443 26.3726L15.9445 31H14.8635L15.9753 24.6016H17.0212L19.0339 29.2378L19.8381 24.6016H20.9104ZM23.2918 31H21.8988L22.0614 30.1255L23.3226 30.1343C23.7533 30.1343 24.1195 30.0361 24.4212 29.8398C24.7259 29.6436 24.9676 29.3813 25.1463 29.0532C25.328 28.7251 25.4496 28.3633 25.5111 27.9678L25.555 27.6162C25.5872 27.3672 25.5946 27.1196 25.577 26.8735C25.5623 26.6245 25.5096 26.3975 25.4188 26.1924C25.328 25.9844 25.1917 25.8174 25.0101 25.6914C24.8285 25.5625 24.5868 25.4937 24.285 25.4849L22.8304 25.4805L22.9842 24.6016L24.3158 24.606C24.7435 24.6147 25.1126 24.7026 25.4232 24.8696C25.7367 25.0337 25.9915 25.2563 26.1878 25.5376C26.3841 25.8159 26.5189 26.1353 26.5921 26.4956C26.6683 26.856 26.6829 27.2339 26.6361 27.6294L26.5921 27.9722C26.5306 28.4028 26.409 28.8042 26.2274 29.1763C26.0457 29.5454 25.8114 29.8662 25.5243 30.1387C25.2371 30.4111 24.9046 30.6235 24.5267 30.7759C24.1517 30.9253 23.7401 31 23.2918 31ZM23.6126 24.6016L22.5008 31H21.4198L22.5316 24.6016H23.6126ZM31.0434 29.3213C31.0698 29.1484 31.0537 29.0034 30.9951 28.8862C30.9365 28.7661 30.8515 28.6665 30.7402 28.5874C30.6318 28.5054 30.5088 28.4365 30.3711 28.3809C30.2334 28.3252 30.0971 28.2725 29.9624 28.2227C29.7397 28.1436 29.52 28.0498 29.3032 27.9414C29.0864 27.833 28.8901 27.7041 28.7143 27.5547C28.5415 27.4053 28.4067 27.2295 28.31 27.0273C28.2134 26.8223 28.1738 26.5835 28.1914 26.311C28.2148 26.0034 28.3013 25.7368 28.4507 25.5112C28.603 25.2827 28.7964 25.0938 29.0307 24.9443C29.2651 24.7949 29.5215 24.6851 29.7998 24.6147C30.0781 24.5415 30.355 24.5078 30.6304 24.5137C31.02 24.5225 31.3672 24.606 31.6719 24.7642C31.9765 24.9224 32.2153 25.1465 32.3882 25.4365C32.561 25.7266 32.6401 26.0708 32.6255 26.4692H31.5532C31.5708 26.2466 31.5429 26.0562 31.4697 25.8979C31.3994 25.7368 31.2881 25.6123 31.1357 25.5244C30.9834 25.4336 30.7944 25.3867 30.5688 25.3838C30.3667 25.3779 30.1719 25.4087 29.9844 25.4761C29.7969 25.5405 29.6372 25.6416 29.5054 25.7793C29.3764 25.917 29.2959 26.0942 29.2637 26.311C29.2402 26.4634 29.2607 26.5952 29.3252 26.7065C29.3926 26.8179 29.4848 26.9116 29.602 26.9878C29.7192 27.064 29.8452 27.1284 29.98 27.1812C30.1147 27.2339 30.2407 27.2808 30.3579 27.3218C30.5952 27.4038 30.8222 27.502 31.039 27.6162C31.2588 27.7275 31.4536 27.8608 31.6235 28.0161C31.7934 28.1714 31.9238 28.356 32.0146 28.5698C32.1054 28.7808 32.1406 29.0283 32.1201 29.3125C32.0937 29.626 32.0058 29.897 31.8564 30.1255C31.707 30.3511 31.5166 30.5356 31.2851 30.6792C31.0537 30.8228 30.7988 30.9282 30.5205 30.9956C30.2422 31.063 29.9609 31.0938 29.6767 31.0879C29.375 31.085 29.0893 31.0381 28.8198 30.9473C28.5532 30.8564 28.3188 30.7246 28.1167 30.5518C27.9145 30.376 27.7578 30.1636 27.6465 29.9146C27.5381 29.6655 27.4897 29.3813 27.5014 29.062L28.5737 29.0664C28.562 29.2539 28.5796 29.4209 28.6264 29.5674C28.6763 29.7109 28.7524 29.8311 28.855 29.9277C28.9575 30.0244 29.082 30.0977 29.2285 30.1475C29.3779 30.1973 29.5449 30.2222 29.7295 30.2222C29.9287 30.228 30.1221 30.2002 30.3096 30.1387C30.5 30.0771 30.6611 29.9805 30.7929 29.8486C30.9277 29.7139 31.0112 29.5381 31.0434 29.3213Z" fill="white"/>
</g>
<g filter="url(#filter1_d_2001_447)">
<path d="M51.1025 41.4595L52.3916 41.4434C52.3057 42.002 52.1069 42.4836 51.7954 42.8882C51.4875 43.2892 51.1007 43.5972 50.6353 43.812C50.1698 44.0233 49.6577 44.1217 49.0991 44.1074C48.5871 44.0967 48.1574 43.9839 47.8101 43.769C47.4627 43.5542 47.1906 43.2713 46.9937 42.9204C46.7967 42.5659 46.666 42.172 46.6016 41.7388C46.5407 41.3055 46.5407 40.8651 46.6016 40.4175L46.6929 39.7676C46.7645 39.2878 46.8952 38.8241 47.085 38.3765C47.2747 37.9289 47.5218 37.5296 47.8262 37.1787C48.1341 36.8278 48.4993 36.5539 48.9219 36.3569C49.3444 36.1564 49.8224 36.0615 50.356 36.0723C50.9038 36.083 51.3639 36.203 51.7363 36.4321C52.1123 36.6577 52.4006 36.971 52.6011 37.3721C52.8016 37.7731 52.9108 38.2386 52.9287 38.7686L51.6235 38.7632C51.6235 38.4552 51.5806 38.1813 51.4946 37.9414C51.4123 37.7015 51.2744 37.5117 51.0811 37.3721C50.8877 37.2324 50.6227 37.1572 50.2861 37.1465C49.9209 37.1357 49.6058 37.2056 49.3408 37.356C49.0758 37.5063 48.8521 37.7104 48.6694 37.9683C48.4904 38.2261 48.349 38.5125 48.2451 38.8276C48.1413 39.1392 48.0661 39.4489 48.0195 39.7568L47.9229 40.4229C47.887 40.6807 47.8691 40.9582 47.8691 41.2554C47.8691 41.5526 47.9049 41.8337 47.9766 42.0986C48.0518 42.3636 48.1825 42.5838 48.3687 42.7593C48.5584 42.9312 48.8252 43.0225 49.1689 43.0332C49.527 43.0475 49.8332 42.992 50.0874 42.8667C50.3452 42.7414 50.5565 42.5588 50.7212 42.3188C50.8895 42.0789 51.0166 41.7925 51.1025 41.4595ZM58.3379 40.2734L58.1841 41.1479H54.8795L55.0333 40.2734H58.3379ZM55.7715 37.6016L54.6597 44H53.5787L54.6905 37.6016H55.7715ZM59.6212 37.6016L58.5093 44H57.4415L58.5489 37.6016H59.6212ZM64.3625 43.1255L64.2087 44H60.9084L61.0578 43.1255H64.3625ZM62.3278 37.6016L61.216 44H60.135L61.2468 37.6016H62.3278ZM64.424 40.2734L64.2746 41.1348H61.4006L61.5544 40.2734H64.424ZM65.2941 37.6016L65.1403 38.4805H61.862L62.0202 37.6016H65.2941ZM69.4422 41.9214L70.4969 41.9082C70.4266 42.3652 70.264 42.7593 70.0091 43.0903C69.7572 43.4185 69.4408 43.6704 69.0599 43.8462C68.679 44.019 68.2601 44.0996 67.8031 44.0879C67.3841 44.0791 67.0326 43.9868 66.7484 43.811C66.4642 43.6353 66.2415 43.4038 66.0804 43.1167C65.9193 42.8267 65.8123 42.5044 65.7596 42.1499C65.7098 41.7954 65.7098 41.4351 65.7596 41.0688L65.8343 40.5371C65.8929 40.1445 65.9998 39.7651 66.1551 39.3989C66.3104 39.0327 66.5125 38.7061 66.7616 38.4189C67.0135 38.1318 67.3123 37.9077 67.658 37.7466C68.0037 37.5825 68.3949 37.5049 68.8314 37.5137C69.2796 37.5225 69.6561 37.6206 69.9608 37.8081C70.2684 37.9927 70.5042 38.249 70.6683 38.5771C70.8324 38.9053 70.9217 39.2861 70.9364 39.7197L69.8685 39.7153C69.8685 39.4634 69.8333 39.2393 69.763 39.043C69.6956 38.8467 69.5829 38.6914 69.4246 38.5771C69.2664 38.4629 69.0496 38.4014 68.7743 38.3926C68.4754 38.3838 68.2176 38.4409 68.0008 38.564C67.784 38.687 67.6009 38.854 67.4515 39.0649C67.305 39.2759 67.1893 39.5103 67.1043 39.7681C67.0194 40.0229 66.9579 40.2764 66.9198 40.5283L66.8407 41.0732C66.8114 41.2842 66.7967 41.5112 66.7967 41.7544C66.7967 41.9976 66.826 42.2275 66.8846 42.4443C66.9461 42.6611 67.0531 42.8413 67.2054 42.9849C67.3607 43.1255 67.5789 43.2002 67.8602 43.209C68.1532 43.2207 68.4037 43.1753 68.6117 43.0728C68.8226 42.9702 68.9954 42.8208 69.1302 42.6245C69.2679 42.4282 69.3719 42.1938 69.4422 41.9214ZM73.6914 37.6016L72.5796 44H71.4985L72.6103 37.6016H73.6914ZM77.4575 37.6016L74.3945 40.6997L72.6675 42.2773L72.6719 41.0996L73.9023 39.8208L76.0732 37.6016H77.4575ZM75.1899 44L73.643 40.9238L74.4736 40.2119L76.3984 44H75.1899Z" fill="white"/>
</g>
<g filter="url(#filter2_d_2001_447)">
<path d="M34 45C30.4 39 26.5 36.5 25 36C27.8 36 32.1667 39 34 40.5C41.2 32.1 53.6667 26.3333 59 24.5C47.8 30.1 37.6667 40.5 34 45Z" fill="white"/>
</g>
<defs>
<filter id="filter0_d_2001_447" x="1.2041" y="23.1797" width="32.4434" height="9.92139" filterUnits="userSpaceOnUse" color-interpolation-filters="sRGB">
<feFlood flood-opacity="0" result="BackgroundImageFix"/>
<feColorMatrix in="SourceAlpha" type="matrix" values="0 0 0 0 0 0 0 0 0 0 0 0 0 0 0 0 0 0 127 0" result="hardAlpha"/>
<feOffset dy="1"/>
<feGaussianBlur stdDeviation="0.5"/>
<feComposite in2="hardAlpha" operator="out"/>
<feColorMatrix type="matrix" values="0 0 0 0 0 0 0 0 0 0 0 0 0 0 0 0 0 0 0.25 0"/>
<feBlend mode="normal" in2="BackgroundImageFix" result="effect1_dropShadow_2001_447"/>
<feBlend mode="normal" in="SourceGraphic" in2="effect1_dropShadow_2001_447" result="shape"/>
</filter>
<filter id="filter1_d_2001_447" x="45.5103" y="36.0562" width="32.9473" height="10.0728" filterUnits="userSpaceOnUse" color-interpolation-filters="sRGB">
<feFlood flood-opacity="0" result="BackgroundImageFix"/>
<feColorMatrix in="SourceAlpha" type="matrix" values="0 0 0 0 0 0 0 0 0 0 0 0 0 0 0 0 0 0 127 0" result="hardAlpha"/>
<feOffset dy="1"/>
<feGaussianBlur stdDeviation="0.5"/>
<feComposite in2="hardAlpha" operator="out"/>
<feColorMatrix type="matrix" values="0 0 0 0 0 0 0 0 0 0 0 0 0 0 0 0 0 0 0.25 0"/>
<feBlend mode="normal" in2="BackgroundImageFix" result="effect1_dropShadow_2001_447"/>
<feBlend mode="normal" in="SourceGraphic" in2="effect1_dropShadow_2001_447" result="shape"/>
</filter>
<filter id="filter2_d_2001_447" x="0" y="0.5" width="84" height="70.5" filterUnits="userSpaceOnUse" color-interpolation-filters="sRGB">
<feFlood flood-opacity="0" result="BackgroundImageFix"/>
<feColorMatrix in="SourceAlpha" type="matrix" values="0 0 0 0 0 0 0 0 0 0 0 0 0 0 0 0 0 0 127 0" result="hardAlpha"/>
<feOffset dy="1"/>
<feGaussianBlur stdDeviation="12.5"/>
<feComposite in2="hardAlpha" operator="out"/>
<feColorMatrix type="matrix" values="0 0 0 0 0 0 0 0 0 0 0 0 0 0 0 0 0 0 0.25 0"/>
<feBlend mode="normal" in2="BackgroundImageFix" result="effect1_dropShadow_2001_447"/>
<feBlend mode="normal" in="SourceGraphic" in2="effect1_dropShadow_2001_447" result="shape"/>
</filter>
</defs>
</svg>
