<svg width="24" height="25" viewBox="0 0 24 25" fill="none" xmlns="http://www.w3.org/2000/svg">
<path d="M22 12.478C22 18.0009 17.5228 22.478 12 22.478C6.47715 22.478 2 18.0009 2 12.478C2 6.95518 6.47715 2.47803 12 2.47803C17.5228 2.47803 22 6.95518 22 12.478Z" fill="#E9F8F1"/>
<path d="M16 10.478L10.8363 15.1723C10.6456 15.3456 10.3544 15.3456 10.1637 15.1723L8 13.2053M22 12.478C22 18.0009 17.5228 22.478 12 22.478C6.47715 22.478 2 18.0009 2 12.478C2 6.95518 6.47715 2.47803 12 2.47803C17.5228 2.47803 22 6.95518 22 12.478Z" stroke="#27B973" stroke-width="1.67" stroke-linecap="round"/>
</svg>
