<svg width="61" height="61" viewBox="0 0 61 61" fill="none" xmlns="http://www.w3.org/2000/svg">
<path d="M50.3505 36.653C52.1255 38.178 50.8755 40.753 48.3505 40.753H29.8755V11.853H48.3505C50.8755 11.853 52.1255 14.453 50.3505 15.953L42.8255 22.378C40.3005 24.528 40.3005 28.053 42.8255 30.203L50.3505 36.653Z" stroke="#EAECF0" stroke-width="2" stroke-linecap="round" stroke-linejoin="round"/>
<path d="M9.32367 27.9028V53.6028" stroke="#EAECF0" stroke-width="2" stroke-linecap="round" stroke-linejoin="round"/>
<path d="M27.2981 35.6275H11.8732C10.4482 35.6275 9.29816 34.4775 9.29816 33.0525V9.92754C9.29816 8.50254 10.4482 7.35254 11.8732 7.35254H27.2981C28.7231 7.35254 29.8731 8.50254 29.8731 9.92754V33.0525C29.8731 34.4775 28.7231 35.6275 27.2981 35.6275Z" stroke="#EAECF0" stroke-width="2" stroke-linecap="round" stroke-linejoin="round"/>
</svg>
