<svg width="61" height="61" viewBox="0 0 61 61" fill="none" xmlns="http://www.w3.org/2000/svg">
<path d="M30.2015 44.1031C40.3497 44.1031 48.5764 35.8763 48.5764 25.728C48.5764 15.5798 40.3497 7.35303 30.2015 7.35303C20.0532 7.35303 11.8264 15.5798 11.8264 25.728C11.8264 35.8763 20.0532 44.1031 30.2015 44.1031Z" stroke="white" stroke-width="2" stroke-linecap="round" stroke-linejoin="round"/>
<path d="M15.2489 36.7275L8.99887 47.4025L16.3739 47.0025L19.7239 53.5775L25.2489 44.2275C21.0739 43.1525 17.7239 40.1275 15.2489 36.7275Z" stroke="white" stroke-width="2" stroke-linecap="round" stroke-linejoin="round"/>
<path d="M45.2488 36.7275C42.7988 40.1525 39.4238 43.1275 35.2488 44.2275L40.7738 53.6025L44.1238 47.0275L51.4988 47.4275L45.2488 36.7275Z" stroke="white" stroke-width="2" stroke-linecap="round" stroke-linejoin="round"/>
<path d="M40.7016 23.4028C41.1766 22.9528 40.9016 22.1277 40.2516 22.0527L34.2266 21.1777C33.9766 21.1277 33.7516 20.9777 33.6266 20.7277L30.9265 15.2527C30.6265 14.6527 29.7766 14.6527 29.5016 15.2527L26.8016 20.7277C26.6766 20.9527 26.4516 21.1277 26.2016 21.1777L20.1766 22.0527C19.5266 22.1527 19.2766 22.9528 19.7266 23.4028L24.1016 27.6527C24.3016 27.8527 24.3766 28.1027 24.3266 28.3527L23.3016 34.3527C23.1766 35.0027 23.8766 35.5027 24.4516 35.1777L29.8516 32.3527C30.0766 32.2277 30.3766 32.2277 30.6016 32.3527L36.0015 35.1777C36.5765 35.4777 37.2766 34.9777 37.1516 34.3527L36.1266 28.3527C36.0766 28.1027 36.1766 27.8277 36.3516 27.6527L40.7016 23.4028Z" stroke="white" stroke-width="2" stroke-linecap="round" stroke-linejoin="round"/>
</svg>
