<svg width="24" height="25" viewBox="0 0 24 25" fill="none" xmlns="http://www.w3.org/2000/svg">
<g clip-path="url(#clip0_1_3376)">
<path d="M20.4932 21.36H16.9295V15.8341C16.9295 14.5164 16.9058 12.82 15.076 12.82C13.2199 12.82 12.9359 14.2558 12.9359 15.7381V21.3597H9.3722V9.99605H12.7934V11.549H12.8413C13.1837 10.9694 13.6784 10.4925 14.2728 10.1693C14.8672 9.84604 15.5391 9.68848 16.2168 9.71339C19.8288 9.71339 20.4947 12.0658 20.4947 15.1261L20.4932 21.36ZM5.35114 8.44272C4.94212 8.44279 4.54224 8.32277 4.20211 8.09782C3.86198 7.87288 3.59687 7.55312 3.44027 7.17898C3.28368 6.80483 3.24264 6.39312 3.32236 5.99589C3.40209 5.59866 3.599 5.23376 3.88817 4.94733C4.17734 4.6609 4.5458 4.46581 4.94696 4.38673C5.34811 4.30765 5.76393 4.34812 6.14185 4.50304C6.51976 4.65796 6.8428 4.92036 7.0701 5.25706C7.29741 5.59377 7.41877 5.98965 7.41885 6.39465C7.4189 6.66356 7.36544 6.92984 7.26156 7.1783C7.15767 7.42675 7.0054 7.65252 6.81339 7.8427C6.62139 8.03288 6.39342 8.18375 6.14253 8.2867C5.89163 8.38965 5.62273 8.44267 5.35114 8.44272ZM7.133 21.36H3.56557V9.99605H7.133V21.36ZM22.2699 1.07047H1.77481C1.30963 1.06527 0.861372 1.24315 0.528578 1.56502C0.195783 1.88688 0.00567728 2.3264 0 2.787V23.1644C0.00548297 23.6252 0.195478 24.0651 0.52826 24.3873C0.861043 24.7095 1.3094 24.8877 1.77481 24.8828H22.2699C22.7362 24.8886 23.1859 24.7109 23.5199 24.3887C23.854 24.0665 24.0453 23.6262 24.0518 23.1644V2.78553C24.0451 2.32402 23.8537 1.884 23.5196 1.56214C23.1855 1.24028 22.736 1.06291 22.2699 1.069" fill="white"/>
</g>
<defs>
<clipPath id="clip0_1_3376">
<rect width="24" height="24" fill="white" transform="translate(0 0.956055)"/>
</clipPath>
</defs>
</svg>
