<svg width="61" height="61" viewBox="0 0 61 61" fill="none" xmlns="http://www.w3.org/2000/svg">
<path d="M30.7502 16.6775V14.9775" stroke="white" stroke-width="2" stroke-linecap="round" stroke-linejoin="round"/>
<path d="M30.7502 26.8027V28.4777" stroke="white" stroke-width="2" stroke-linecap="round" stroke-linejoin="round"/>
<path d="M39.7523 44.8525H21.7523" stroke="white" stroke-width="2" stroke-linecap="round" stroke-linejoin="round"/>
<path d="M39.7523 35.9028H21.7523" stroke="white" stroke-width="2" stroke-linecap="round" stroke-linejoin="round"/>
<path d="M27.8275 25.6025C28.0535 25.9532 28.3518 26.2516 28.7025 26.4775C29.0688 26.6851 29.4816 26.7969 29.9025 26.8025H31.7525C32.0695 26.8072 32.3842 26.7477 32.6775 26.6275C32.9609 26.5058 33.2162 26.3271 33.4275 26.1025C33.6521 25.8911 33.8308 25.6358 33.9525 25.3525C34.0727 25.0591 34.1322 24.7445 34.1275 24.4275C34.1097 23.9009 33.9259 23.3934 33.6025 22.9775C33.277 22.5677 32.831 22.2704 32.3275 22.1275L29.1775 21.3525C28.674 21.2096 28.2281 20.9123 27.9025 20.5025C27.5791 20.0866 27.3953 19.5791 27.3775 19.0525C27.3729 18.7355 27.4324 18.4209 27.5525 18.1275C27.6743 17.8442 27.853 17.5889 28.0775 17.3775C28.2889 17.1529 28.5442 16.9743 28.8275 16.8525C29.1209 16.7324 29.4356 16.6728 29.7525 16.6775H31.6025C32.0235 16.6831 32.4363 16.7949 32.8025 17.0025C33.1533 17.2284 33.4516 17.5268 33.6775 17.8775" stroke="white" stroke-width="2" stroke-linecap="round" stroke-linejoin="round"/>
<path d="M42.0011 7.35254H19.5011C17.6778 7.35254 15.9291 8.07685 14.6398 9.36616C13.3504 10.6555 12.6261 12.4042 12.6261 14.2275V46.7275C12.6261 48.5509 13.3504 50.2996 14.6398 51.5889C15.9291 52.8782 17.6778 53.6025 19.5011 53.6025H42.0011C43.8245 53.6025 45.5732 52.8782 46.8625 51.5889C48.1518 50.2996 48.8761 48.5509 48.8761 46.7275V14.2275C48.8761 12.4042 48.1518 10.6555 46.8625 9.36616C45.5732 8.07685 43.8245 7.35254 42.0011 7.35254Z" stroke="white" stroke-width="2" stroke-linecap="round" stroke-linejoin="round"/>
</svg>
