<svg width="162" height="53" viewBox="0 0 162 53" fill="none" xmlns="http://www.w3.org/2000/svg">
<g clip-path="url(#clip0_2001_488)">
<path d="M5.56017 19.7803C6.95185 19.7803 8.16804 20.0561 9.20866 20.6078C10.2493 21.1594 11.0517 21.9368 11.6159 22.9398C12.1927 23.9303 12.481 25.0775 12.481 26.3814C12.481 27.6728 12.1927 28.82 11.6159 29.8231C11.0517 30.8261 10.243 31.6034 9.18983 32.155C8.14922 32.7067 6.93931 32.9825 5.56017 32.9825H0.614014V19.7803H5.56017ZM5.35329 30.1992C6.56945 30.1992 7.51605 29.8669 8.19308 29.2024C8.87017 28.5379 9.20866 27.5976 9.20866 26.3814C9.20866 25.1653 8.87017 24.2186 8.19308 23.5416C7.51605 22.8646 6.56945 22.526 5.35329 22.526H3.82995V30.1992H5.35329Z" fill="#EEEEEE"/>
<path d="M22.4916 30.6505H17.5642L16.7744 32.9825H13.408L18.1849 19.7803H21.9086L26.6855 32.9825H23.2815L22.4916 30.6505ZM21.6641 28.168L20.0279 23.3347L18.4105 28.168H21.6641Z" fill="#EEEEEE"/>
<path d="M32.9184 33.1153C31.953 33.1153 31.0879 32.9586 30.3231 32.6451C29.5583 32.3317 28.9439 31.8677 28.48 31.2534C28.0287 30.6391 27.7904 29.8993 27.7654 29.0342H31.1882C31.2383 29.5232 31.4076 29.8993 31.696 30.1626C31.9844 30.4134 32.3605 30.5387 32.8244 30.5387C33.3008 30.5387 33.677 30.4322 33.9528 30.219C34.2286 29.9934 34.3665 29.6862 34.3665 29.2975C34.3665 28.9715 34.2537 28.702 34.028 28.4888C33.8148 28.2757 33.5453 28.1001 33.2193 27.9622C32.9059 27.8243 32.4545 27.6676 31.8652 27.4921C31.0127 27.2288 30.3168 26.9655 29.7777 26.7022C29.2385 26.4389 28.7747 26.0502 28.386 25.5362C27.9973 25.0221 27.803 24.3513 27.803 23.5239C27.803 22.2952 28.2481 21.336 29.1383 20.6464C30.0285 19.9443 31.1882 19.5933 32.6175 19.5933C34.0719 19.5933 35.2442 19.9443 36.1343 20.6464C37.0245 21.336 37.501 22.3014 37.5637 23.5427H34.0844C34.0593 23.1164 33.9026 22.7841 33.6143 22.5459C33.3259 22.2952 32.956 22.1698 32.5046 22.1698C32.116 22.1698 31.8025 22.2763 31.5643 22.4895C31.3261 22.6901 31.207 22.9847 31.207 23.3734C31.207 23.7997 31.4076 24.1319 31.8088 24.3702C32.21 24.6084 32.8369 24.8654 33.6895 25.1412C34.5421 25.4296 35.2316 25.7054 35.7582 25.9687C36.2973 26.232 36.7612 26.6144 37.1499 27.1159C37.5386 27.6175 37.7329 28.2632 37.7329 29.053C37.7329 29.8053 37.5386 30.4886 37.1499 31.1029C36.7738 31.7173 36.2221 32.2063 35.4949 32.5699C34.7677 32.9335 33.9089 33.1153 32.9184 33.1153Z" fill="#EEEEEE"/>
<path d="M46.9227 19.7803V32.9825H43.7068V19.7803H46.9227Z" fill="#EEEEEE"/>
<path d="M61.0535 32.9825H57.8371L52.4585 24.8393V32.9825H49.2427V19.7803H52.4585L57.8371 27.9612V19.7803H61.0535V32.9825Z" fill="#EEEEEE"/>
<path d="M75.7865 19.7803L71.1037 32.9825H67.079L62.3962 19.7803H65.819L69.0914 29.7478L72.3824 19.7803H75.7865Z" fill="#EEEEEE"/>
<path d="M80.3371 22.3568V25.0273H84.6434V27.5098H80.3371V30.406H85.2081V32.9825H77.1207V19.7803H85.2081V22.3568H80.3371Z" fill="#EEEEEE"/>
<path d="M92.0755 33.1148C91.11 33.1148 90.2446 32.9581 89.4798 32.6446C88.715 32.3312 88.1011 31.8673 87.637 31.2529C87.1854 30.6386 86.9474 29.8988 86.9225 29.0337H90.3452C90.3955 29.5227 90.5646 29.8988 90.8529 30.1621C91.1412 30.4129 91.5176 30.5382 91.9812 30.5382C92.4577 30.5382 92.8341 30.4317 93.11 30.2185C93.3853 29.9929 93.5232 29.6857 93.5232 29.297C93.5232 28.971 93.4107 28.7015 93.1852 28.4883C92.972 28.2752 92.7024 28.0997 92.3763 27.9617C92.0626 27.8238 91.6115 27.6671 91.0224 27.4916C90.1695 27.2283 89.4736 26.965 88.9349 26.7017C88.3956 26.4384 87.9315 26.0497 87.5432 25.5357C87.1543 25.0216 86.9598 24.3509 86.9598 23.5234C86.9598 22.2947 87.4052 21.3355 88.295 20.6459C89.1853 19.9438 90.3452 19.5928 91.7743 19.5928C93.2287 19.5928 94.4011 19.9438 95.2914 20.6459C96.1817 21.3355 96.6577 22.3009 96.7204 23.5422H93.2412C93.2163 23.1159 93.0597 22.7836 92.7714 22.5454C92.4831 22.2947 92.1129 22.1693 91.6617 22.1693C91.2729 22.1693 90.9597 22.2759 90.7212 22.489C90.4832 22.6896 90.3639 22.9842 90.3639 23.3729C90.3639 23.7992 90.5646 24.1314 90.9659 24.3697C91.3667 24.6079 91.9936 24.8649 92.8466 25.1407C93.699 25.4291 94.3886 25.7049 94.9149 25.9682C95.4542 26.2315 95.9183 26.6139 96.3066 27.1155C96.6955 27.617 96.89 28.2627 96.89 29.0525C96.89 29.8048 96.6955 30.4881 96.3066 31.1024C95.9307 31.7168 95.379 32.2058 94.652 32.5694C93.9246 32.933 93.0659 33.1148 92.0755 33.1148Z" fill="#EEEEEE"/>
<path d="M108.375 19.7803V22.3568H104.877V32.9825H101.661V22.3568H98.1628V19.7803H108.375Z" fill="#EEEEEE"/>
<path d="M124.941 19.7803V32.9825H121.725V25.065L118.773 32.9825H116.177L113.206 25.0461V32.9825H109.99V19.7803H113.789L117.493 28.9203L121.161 19.7803H124.941Z" fill="#EEEEEE"/>
<path d="M130.458 22.3568V25.0273H134.764V27.5098H130.458V30.406H135.329V32.9825H127.242V19.7803H135.329V22.3568H130.458Z" fill="#EEEEEE"/>
<path d="M149.237 32.9825H146.021L140.642 24.8393V32.9825H137.426V19.7803H140.642L146.021 27.9612V19.7803H149.237V32.9825Z" fill="#EEEEEE"/>
<path d="M161.063 19.7803V22.3568H157.565V32.9825H154.349V22.3568H150.851V19.7803H161.063Z" fill="#EEEEEE"/>
</g>
<defs>
<clipPath id="clip0_2001_488">
<rect width="160.741" height="14" fill="white" transform="translate(0.477051 19.5)"/>
</clipPath>
</defs>
</svg>
