<svg width="131" height="34" viewBox="0 0 131 34" fill="none" xmlns="http://www.w3.org/2000/svg">
<g id="FINRA_Logo_CoreBlue_Screen_RGB">
<g id="Group 2865">
<path id="Rectangle 54" d="M33.76 0.5H28.066V33.176H33.76V0.5Z" fill="#233E66"/>
<path id="Path 1" d="M103.857 27.617C103.424 27.6628 102.985 27.6158 102.572 27.4791C102.158 27.3424 101.778 27.1191 101.457 26.8241C101.137 26.5291 100.882 26.1692 100.712 25.7682C100.541 25.3673 100.457 24.9346 100.467 24.499C100.467 22.872 101.416 21.652 103.857 20.974L116.195 17.584V27.617H103.857ZM122.025 8.90698C122.025 4.70698 119.449 0.500977 112.941 0.500977H100.874C98.974 0.500977 98.162 1.31398 98.027 2.94098C97.891 3.61898 97.756 6.05898 97.756 6.05898H112.127C115.11 6.05898 116.327 7.41498 116.327 9.71998V11.62L104.26 14.874C97.752 16.637 94.634 19.484 94.634 24.365C94.6261 25.5297 94.8543 26.6839 95.3047 27.7581C95.755 28.8322 96.4183 29.804 97.2545 30.6149C98.0906 31.4257 99.0824 32.0588 100.17 32.4759C101.257 32.8931 102.418 33.0856 103.582 33.042H122.157C122.025 33.176 122.025 8.90698 122.025 8.90698Z" fill="#233E66"/>
<path id="Path 2" d="M79.858 9.85596C79.858 7.55596 81.078 6.19496 84.058 6.19496H93.82C93.82 6.19496 93.549 3.75496 93.549 3.07696C93.413 1.44996 92.736 0.636963 90.702 0.636963H83.248C76.876 0.636963 74.164 4.83696 74.164 9.04296V33.312H79.858V9.85596Z" fill="#233E66"/>
<path id="Path 3" d="M57.351 6.059C60.334 6.059 61.551 7.415 61.551 9.72V33.04H67.381V8.906C67.381 4.706 64.805 0.5 58.297 0.5H40.539V33.176H46.233V6.059H57.351Z" fill="#233E66"/>
<path id="Path 4" d="M20.2 15.957C20.064 14.33 19.387 13.517 17.353 13.517H5.83V9.85596C5.83 7.55596 7.05 6.19496 10.03 6.19496H23.863C23.863 6.19496 23.592 3.75496 23.592 3.07696C23.456 1.44996 22.779 0.636963 20.745 0.636963H9.084C2.576 0.636963 0 4.83696 0 9.04296V33.312H5.83V19.075H20.473C20.473 19.075 20.2 16.636 20.2 15.957Z" fill="#233E66"/>
<g id="Group 2864">
<path id="Path 5" d="M128.262 28.0229C128.68 28.0481 129.092 28.1396 129.482 28.2939C129.892 28.5001 130.225 28.8329 130.431 29.2429C130.706 29.6406 130.849 30.1153 130.838 30.5989C130.813 31.0616 130.722 31.5183 130.567 31.9549C130.322 32.3354 129.998 32.659 129.618 32.9039C129.206 33.1357 128.731 33.2306 128.262 33.1749C127.84 33.181 127.422 33.0882 127.042 32.9039C126.662 32.659 126.338 32.3354 126.093 31.9549C125.861 31.5431 125.766 31.0682 125.822 30.5989C125.83 30.1181 125.971 29.6489 126.229 29.2429C126.474 28.8625 126.798 28.5389 127.178 28.2939C127.515 28.1247 127.885 28.0322 128.262 28.0229ZM128.262 28.4299C127.887 28.4557 127.52 28.5474 127.177 28.7009C126.842 28.8987 126.562 29.1785 126.364 29.5139C126.186 29.8476 126.092 30.2201 126.092 30.5984C126.092 30.9768 126.186 31.3493 126.364 31.6829C126.422 31.8748 126.527 32.0493 126.669 32.191C126.811 32.3328 126.985 32.4375 127.177 32.4959C127.511 32.6743 127.883 32.7677 128.261 32.7677C128.64 32.7677 129.012 32.6743 129.346 32.4959C129.681 32.2981 129.961 32.0184 130.159 31.6829C130.374 31.3646 130.47 30.9803 130.43 30.5979C130.404 30.2231 130.312 29.8558 130.159 29.5129C130.101 29.3211 129.996 29.1466 129.854 29.0049C129.712 28.8631 129.538 28.7584 129.346 28.6999C129.003 28.5469 128.636 28.4555 128.262 28.4299ZM127.042 31.9549V29.1079H127.991C128.226 29.0726 128.466 29.1207 128.669 29.2439C128.805 29.3799 128.94 29.3799 129.076 29.5149C129.127 29.5684 129.166 29.6327 129.19 29.7031C129.213 29.7735 129.221 29.8483 129.212 29.9219C129.183 30.1271 129.087 30.3172 128.941 30.4638C128.794 30.6104 128.604 30.7055 128.399 30.7349C128.535 30.7349 128.535 30.8709 128.67 30.8709C128.838 31.0253 128.975 31.209 129.077 31.4129L129.348 31.9549H128.806L128.67 31.5479C128.534 31.1409 128.263 31.0059 128.263 30.8699C128.127 30.8699 127.992 30.7339 127.856 30.7339H127.585V31.9539H127.043L127.042 31.9549ZM127.584 30.4639H128.126C128.397 30.4639 128.533 30.4639 128.668 30.3279C128.803 30.1919 128.804 30.1919 128.804 30.0569C128.804 29.9219 128.804 29.9209 128.668 29.7859L128.532 29.6499H127.583V30.4629L127.584 30.4639Z" fill="#233E66"/>
</g>
</g>
</g>
</svg>
